<svg width="665" height="81" viewBox="0 0 665 81" fill="none" xmlns="http://www.w3.org/2000/svg">
<path d="M665.375 0H664.043V81.0095H665.375V0Z" fill="#C0A66B"/>
<path d="M653.802 0H652.47V81.0095H653.802V0Z" fill="#C0A66B"/>
<path d="M642.223 0H640.891V81.0095H642.223V0Z" fill="#C0A66B"/>
<path d="M630.65 0H629.318V81.0095H630.65V0Z" fill="#C0A66B"/>
<path d="M619.071 0H617.739V81.0095H619.071V0Z" fill="#C0A66B"/>
<path d="M607.498 0H606.166V81.0095H607.498V0Z" fill="#C0A66B"/>
<path d="M595.919 0H594.587V81.0095H595.919V0Z" fill="#C0A66B"/>
<path d="M584.346 0H583.014V81.0095H584.346V0Z" fill="#C0A66B"/>
<path d="M572.767 0H571.435V81.0095H572.767V0Z" fill="#C0A66B"/>
<path d="M561.194 0H559.862V81.0095H561.194V0Z" fill="#C0A66B"/>
<path d="M549.615 0H548.283V81.0095H549.615V0Z" fill="#C0A66B"/>
<path d="M538.042 0H536.71V81.0095H538.042V0Z" fill="#C0A66B"/>
<path d="M526.463 0H525.131V81.0095H526.463V0Z" fill="#C0A66B"/>
<path d="M514.89 0H513.558V81.0095H514.89V0Z" fill="#C0A66B"/>
<path d="M491.104 0H489.771V81.0095H491.104V0Z" fill="#C0A66B"/>
<path d="M467.322 0H465.99V81.0095H467.322V0Z" fill="#C0A66B"/>
<path d="M443.536 0H442.203V81.0095H443.536V0Z" fill="#C0A66B"/>
<path d="M419.755 0H418.423V81.0095H419.755V0Z" fill="#C0A66B"/>
<path d="M395.968 0H394.636V81.0095H395.968V0Z" fill="#C0A66B"/>
<path d="M372.187 0H370.855V81.0095H372.187V0Z" fill="#C0A66B"/>
<path d="M325.249 0H323.916V81.0095H325.249V0Z" fill="#C0A66B"/>
<path d="M278.316 0H276.983V81.0095H278.316V0Z" fill="#C0A66B"/>
<path d="M231.383 0H230.05V81.0095H231.383V0Z" fill="#C0A66B"/>
<path d="M184.444 0H183.112V81.0095H184.444V0Z" fill="#C0A66B"/>
<path d="M92.8881 0H91.5558V81.0095H92.8881V0Z" fill="#C0A66B"/>
<path d="M1.33228 0H0V81.0095H1.33228V0Z" fill="#C0A66B"/>
</svg>
