<?xml version="1.0" encoding="UTF-8"?>
<svg id="Camada_2" data-name="Camada 2" xmlns="http://www.w3.org/2000/svg" viewBox="0 0 28 28">
  <defs>
    <style>
      .cls-1 {
        fill: #fff;
        stroke-width: 0px;
      }
    </style>
  </defs>
  <g id="Camada_1-2" data-name="Camada 1">
    <path class="cls-1" d="m1.42,23.57l3.38-3.17h20.67c.6,0,1.09-.49,1.09-1.09V3.29c0-.6-.49-1.09-1.09-1.09H2.51c-.6,0-1.09.49-1.09,1.09v20.28Zm-1.42,4.43V2.8c0-.77.27-1.43.82-1.98C1.37.27,2.03,0,2.8,0h22.4C25.97,0,26.63.28,27.18.82c.55.55.82,1.21.82,1.98v16.8c0,.77-.28,1.43-.82,1.98-.55.55-1.21.82-1.98.82H5.6L0,28ZM5.6,7.68h16.8v-1.36H5.6v1.36Zm0,4.2h16.8v-1.35H5.6v1.35Zm0,4.2h11.2v-1.35H5.6v1.35Z"/>
  </g>
</svg>