<?xml version="1.0" encoding="UTF-8"?>
<svg id="Camada_2" data-name="Camada 2" xmlns="http://www.w3.org/2000/svg" viewBox="0 0 18.64 29.77">
  <defs>
    <style>
      .cls-1 {
        fill: #fff;
        fill-rule: evenodd;
        stroke-width: 0px;
      }
    </style>
  </defs>
  <g id="Camada_1-2" data-name="Camada 1">
    <path class="cls-1" d="m6.23,25.16c-.19,0-.38.05-.51.15-.13.1-.21.23-.21.36s.08.27.21.36c.13.1.32.15.51.15h6.18c.19,0,.38-.05.51-.15.13-.1.21-.23.21-.36s-.08-.27-.21-.36c-.13-.1-.32-.15-.51-.15h-6.18ZM3.11,0c-.82,0-1.61.36-2.2,1.01-.58.64-.91,1.52-.91,2.43v22.9c0,.91.33,1.78.91,2.43.58.64,1.37,1.01,2.2,1.01h12.43c.82,0,1.61-.36,2.2-1.01.58-.64.91-1.52.91-2.43V3.43c0-.91-.33-1.78-.91-2.43-.58-.64-1.37-1.01-2.2-1.01H3.11ZM.93,2.9c0-.32.13-.62.35-.85.22-.23.53-.35.85-.35h14.38c.32,0,.62.13.85.35.23.22.35.53.35.85v23.97c0,.32-.13.62-.35.85-.22.23-.53.35-.85.35H2.13c-.32,0-.62-.13-.85-.35-.23-.22-.35-.53-.35-.85V2.9Z"/>
  </g>
</svg>