<?xml version="1.0" encoding="UTF-8"?>
<svg id="Camada_2" data-name="Camada 2" xmlns="http://www.w3.org/2000/svg" viewBox="0 0 29.8 29.8">
  <defs>
    <style>
      .cls-1 {
        fill: #fff;
        stroke-width: 0px;
      }
    </style>
  </defs>
  <g id="Camada_1-2" data-name="Camada 1">
    <path class="cls-1" d="m21.64,17.85c-.37-.19-2.18-1.08-2.52-1.2-.34-.12-.59-.19-.83.19-.24.38-.95,1.2-1.17,1.45s-.43.28-.8.09c-2.13-.85-3.9-2.4-5.02-4.39-.38-.65.38-.61,1.09-2.02.1-.21.09-.45-.03-.65-.09-.19-.83-2-1.14-2.74-.3-.72-.61-.62-.83-.63-.22,0-.46,0-.7,0-.38,0-.73.18-.98.46-.84.8-1.31,1.92-1.29,3.08.12,1.39.64,2.72,1.5,3.82,1.59,2.38,3.76,4.3,6.31,5.58,2.34,1.01,3.26,1.1,4.43.92,1.04-.21,1.94-.85,2.49-1.76.24-.55.32-1.16.21-1.76-.09-.17-.33-.26-.7-.44h-.02Zm-6.76,10.94c-2.51,0-4.98-.67-7.14-1.96l-.51-.3-6.16,2.24,2.27-6.02-.33-.54C-1.01,15.57,1.1,6.94,7.73,2.92c6.64-4.02,15.27-1.91,19.29,4.73,1.3,2.15,2,4.6,2.03,7.1-.08,7.78-6.41,14.04-14.19,14.03h.01ZM25.35,4.31c-5.78-5.76-15.14-5.75-20.9.03C-.26,9.07-1.22,16.36,2.1,22.14l-2.1,7.66,7.83-2.06c2.17,1.18,4.59,1.8,7.06,1.8,8.18,0,14.84-6.59,14.91-14.78-.04-3.94-1.65-7.7-4.47-10.45h.02Z"/>
  </g>
</svg>