<svg width="47" height="61" viewBox="0 0 47 61" fill="none" xmlns="http://www.w3.org/2000/svg">
<path d="M13.225 6.37757C13.9147 6.37757 14.7424 6.28561 15.3401 6.28561C19.9383 6.28561 22.7891 6.83738 24.2145 7.61907C25.8239 8.40075 26.9734 9.45832 27.7551 10.8837C28.4448 12.3092 28.9966 14.5163 28.9966 17.643C28.9966 22.1032 27.8471 24.8621 25.9618 26.4254C24.0766 28.0348 20.1682 29.1843 13.5469 29.1843H13.179V6.37757H13.225ZM13.225 59.578V35.2998H15.2022C22.1914 35.2998 26.3757 36.5413 28.6747 38.5185C30.8818 40.4497 32.2153 43.6684 32.2153 48.5425C32.2153 53.4165 31.1577 56.2673 29.3185 58.3365C34.1925 57.9686 39.1585 57.6468 44.2624 57.3249C45.5499 54.75 46.2396 51.9451 46.2396 48.8184C46.2396 43.6684 44.2624 39.3002 40.308 35.8516C38.1929 34.0124 35.526 32.5869 32.3073 31.5753C34.4224 30.7937 36.2157 29.6901 37.7331 28.4486C41.1817 25.5058 42.883 21.6894 42.883 16.9993C42.883 5.04411 32.2153 0.078125 14.9263 0.078125H0.0743408V60.7275C4.35061 60.3597 8.71883 59.9918 13.225 59.624" fill="#B29E6B"/>
</svg>
