<svg width="69" height="90" viewBox="0 0 69 90" fill="none" xmlns="http://www.w3.org/2000/svg">
<path d="M20.1991 9.31158C21.2187 9.31158 22.4421 9.17564 23.3257 9.17564C30.1224 9.17564 34.3364 9.99125 36.4434 11.1467C38.8223 12.3022 40.5215 13.8654 41.6769 15.9724C42.6964 18.0794 43.5121 21.3419 43.5121 25.9637C43.5121 32.5565 41.8129 36.6346 39.0262 38.9455C36.2395 41.3244 30.4623 43.0236 20.6749 43.0236H20.1312V9.31158H20.1991ZM20.1991 87.9502V52.0633H23.1217C33.4528 52.0633 39.6379 53.8984 43.0363 56.821C46.2987 59.6756 48.2698 64.4334 48.2698 71.638C48.2698 78.8425 46.7065 83.0565 43.9878 86.1151C51.1924 85.5713 58.5329 85.0956 66.0773 84.6198C67.9804 80.8136 68.9999 76.6676 68.9999 72.0458C68.9999 64.4334 66.0773 57.9765 60.2321 52.8789C57.1056 50.1602 53.1635 48.0532 48.4057 46.5579C51.5322 45.4024 54.183 43.7712 56.4259 41.9361C61.5235 37.5861 64.0383 31.9448 64.0383 25.0121C64.0383 7.34051 48.2698 0 22.7139 0H0.760376V89.6494C7.08137 89.1057 13.5383 88.5619 20.1991 88.0182" fill="#B29E6B"/>
</svg>
