<svg width="89" height="80" viewBox="0 0 89 80" fill="none" xmlns="http://www.w3.org/2000/svg">
<path d="M51.9477 77.5877L61.3247 67.9695L52.3762 67.9422C50.8562 67.9376 49.3999 67.3163 48.3488 66.2217L40.6832 58.2597C39.6273 57.1651 38.1758 56.5438 36.6559 56.5392L30.2342 56.5196C28.7143 56.5149 27.2542 57.1273 26.1917 58.2155L23.3138 61.1724C22.742 61.7638 21.7216 61.5092 21.5293 60.7114C20.4363 56.205 19.8918 50.9694 19.9099 45.0523C19.9468 32.9572 22.3591 23.8112 27.0843 17.8611C31.7192 11.9343 35.4517 9.12239 44.1485 9.14894C52.8453 9.17549 57.9433 11.8009 62.8921 18.2029C66.9275 23.4823 68.5565 31.3356 68.5138 45.3193C68.4825 55.5687 67.6021 62.3562 65.6633 67.3184L65.4526 67.8587L66.0321 67.8605C71.5371 67.8773 77.0277 67.9036 82.5042 67.9345L82.7464 67.9353L82.8611 67.7221C86.2816 61.2744 88.0241 53.7208 88.0499 45.2604C88.0923 31.3716 83.5663 20.2827 74.6041 12.3025C65.0266 3.58023 56.4969 0.170929 44.1665 0.13329C30.0787 0.0902854 21.88 4.93848 13.9018 12.2311C4.95704 20.3037 0.406687 31.2083 0.365696 44.6368C0.339189 53.3203 2.1489 61.0888 5.74798 67.7287L5.86134 67.9378L6.09883 67.9385C11.8367 67.9039 17.5935 67.8787 23.3741 67.8584L23.9916 67.8603L25.7632 67.8657C27.2832 67.8703 28.7395 68.4917 29.7906 69.5862L37.4562 77.5482C38.5121 78.6428 39.9636 79.2641 41.4835 79.2687L47.9052 79.2883C49.4251 79.293 50.8852 78.6806 51.943 77.5924" fill="#BFA66B"/>
</svg>
