<svg width="30" height="30" viewBox="0 0 30 30" fill="none" xmlns="http://www.w3.org/2000/svg">
<g id="Vector">
<path fill-rule="evenodd" clip-rule="evenodd" d="M10.9756 14.9996C10.9756 12.7767 12.7781 10.9756 15.0002 10.9756H25.9754C28.1975 10.9756 30 12.7767 30 14.9996V22.6836C30 24.6566 28.58 26.2973 26.7071 26.6413V29.2683C26.7071 29.5642 26.5288 29.831 26.2554 29.9443C25.982 30.0575 25.6673 29.995 25.458 29.7857L22.3794 26.7077H15.0002C12.7769 26.7077 10.9756 24.9064 10.9756 22.6836V14.9996ZM15.0002 12.439C13.5859 12.439 12.439 13.5854 12.439 14.9996V22.6836C12.439 24.098 13.585 25.2442 15.0002 25.2442H22.6825C22.8765 25.2442 23.0626 25.3213 23.1998 25.4585L25.2437 27.502V25.9759C25.2437 25.5718 25.5713 25.2442 25.9754 25.2442C27.3897 25.2442 28.5366 24.0979 28.5366 22.6836V14.9996C28.5366 13.5854 27.3897 12.439 25.9754 12.439H15.0002Z" fill="white"/>
<path fill-rule="evenodd" clip-rule="evenodd" d="M0 4.02426C0 1.80221 1.80276 0 4.02461 0H14.9998C17.222 0 19.0244 1.80226 19.0244 4.02426V11.2679C19.0244 11.672 18.6968 11.9996 18.2927 11.9996H14.5601C13.1457 11.9996 11.9989 13.1459 11.9989 14.5601V15.0001C11.9989 15.4042 11.6713 15.7318 11.2672 15.7318H7.62057L4.54198 18.8101C4.3327 19.0193 4.01799 19.0819 3.74458 18.9687C3.47117 18.8554 3.2929 18.5886 3.2929 18.2927V15.6654C1.4201 15.3213 0 13.68 0 11.7072V4.02426ZM4.02461 1.46341C2.61078 1.46341 1.46341 2.61063 1.46341 4.02426V11.7072C1.46341 13.1216 2.61078 14.2684 4.02461 14.2684C4.42872 14.2684 4.75632 14.596 4.75632 15.0001V16.5263L6.80015 14.4827C6.93736 14.3455 7.12347 14.2684 7.31751 14.2684H10.5459C10.6953 12.1817 12.4361 10.5362 14.5601 10.5362H17.561V4.02426C17.561 2.61058 16.4139 1.46341 14.9998 1.46341H4.02461Z" fill="white"/>
<path fill-rule="evenodd" clip-rule="evenodd" d="M13.9024 14.6341C13.9024 14.23 14.23 13.9024 14.6341 13.9024H20.4878C20.8919 13.9024 21.2195 14.23 21.2195 14.6341C21.2195 15.0382 20.8919 15.3658 20.4878 15.3658H14.6341C14.23 15.3658 13.9024 15.0382 13.9024 14.6341Z" fill="white"/>
<path fill-rule="evenodd" clip-rule="evenodd" d="M13.9024 22.6829C13.9024 22.2788 14.23 21.9512 14.6341 21.9512H25.6098C26.0139 21.9512 26.3415 22.2788 26.3415 22.6829C26.3415 23.087 26.0139 23.4146 25.6098 23.4146H14.6341C14.23 23.4146 13.9024 23.087 13.9024 22.6829Z" fill="white"/>
<path fill-rule="evenodd" clip-rule="evenodd" d="M13.9024 19.0244C13.9024 18.6203 14.23 18.2927 14.6341 18.2927H25.6098C26.0139 18.2927 26.3415 18.6203 26.3415 19.0244C26.3415 19.4285 26.0139 19.7561 25.6098 19.7561H14.6341C14.23 19.7561 13.9024 19.4285 13.9024 19.0244Z" fill="white"/>
</g>
</svg>
