<svg width="151" height="134" viewBox="0 0 151 134" fill="none" xmlns="http://www.w3.org/2000/svg">
<path id="Vector" d="M89.0001 131.1L105.097 114.766H89.6872C87.0698 114.766 84.5587 113.722 82.7429 111.874L69.5004 98.4332C67.6764 96.5854 65.1735 95.541 62.5561 95.541H51.4975C48.8801 95.541 46.369 96.5854 44.545 98.4332L39.6047 103.455C38.6231 104.459 36.8646 104.033 36.5292 102.683C34.6234 95.0589 33.6583 86.1974 33.6583 76.1789C33.6583 55.7001 37.7643 40.2024 45.8701 30.1036C53.8205 20.045 60.2331 15.2647 75.2096 15.2647C90.1861 15.2647 98.979 19.6834 107.535 30.4973C114.512 39.4151 117.358 52.7034 117.358 76.3798C117.358 93.7333 115.878 105.23 112.565 113.642L112.205 114.558H113.203C122.683 114.558 132.138 114.574 141.569 114.598H141.986L142.183 114.236C148.039 103.302 151 90.5036 151 76.1789C151 52.6632 143.148 33.9117 127.672 20.4467C111.134 5.72828 96.427 0 75.1933 0C50.9332 0 36.84 8.25097 23.1395 20.6395C7.77861 34.3536 0 52.84 0 75.5764C0 90.2787 3.15725 103.422 9.38996 114.646L9.58626 114.999H9.99523C19.876 114.911 29.7894 114.839 39.7437 114.775H40.8071H43.858C46.4754 114.775 48.9865 115.819 50.8023 117.667L64.0447 131.108C65.8688 132.956 68.3717 134 70.9891 134H82.0476C84.665 134 87.1761 132.956 88.9919 131.108" fill="#C8AC66"/>
</svg>
