<svg width="262" height="246" viewBox="0 0 262 246" fill="none" xmlns="http://www.w3.org/2000/svg">
<path fill-rule="evenodd" clip-rule="evenodd" d="M179.21 210.124L150.327 239.731L150.313 239.746C147.055 243.096 142.558 244.98 137.878 244.964L118.105 244.898C113.425 244.882 108.956 242.968 105.705 239.596L82.1089 215.073C78.8733 211.701 74.3897 209.787 69.7096 209.771L64.2544 209.753L62.3531 209.747C61.285 209.75 60.2171 209.754 59.1495 209.757L59.2154 190.102C60.2364 190.289 61.3543 190.006 62.1735 189.159L71.0378 180.057C74.3106 176.707 78.8069 174.823 83.487 174.839L103.261 174.905C107.941 174.921 112.41 176.835 115.66 180.207L139.256 204.73C142.492 208.101 146.975 210.016 151.655 210.032L179.21 210.124ZM58.561 86.2899C62.2072 74.1949 67.3007 64.0086 73.824 55.7993C88.1012 37.5541 99.5966 28.8991 126.376 28.9889C153.155 29.0788 168.85 37.1675 184.082 56.8851C196.503 73.145 201.512 97.3285 201.367 140.387C201.261 171.946 198.544 192.846 192.569 208.123L191.92 209.787L193.705 209.793C210.655 209.85 227.562 209.936 244.425 210.036L245.171 210.038L245.524 209.382C256.063 189.532 261.435 166.274 261.522 140.223C261.666 97.4572 247.74 63.3083 220.151 38.7276C190.668 11.8613 164.407 1.35552 126.44 1.22816C83.0607 1.08264 57.8109 16.0035 33.2379 38.4513C18.3862 51.8468 7.46593 67.7776 0.532746 86.0953L58.561 86.2899Z" fill="#BFA66B"/>
</svg>
