<svg width="204" height="244" viewBox="0 0 204 244" fill="none" xmlns="http://www.w3.org/2000/svg">
<path fill-rule="evenodd" clip-rule="evenodd" d="M0.421151 208.763C1.96861 208.753 3.5166 208.742 5.06516 208.732H6.96646H12.4217C17.1019 208.732 21.5919 210.632 24.8387 213.992L48.5173 238.436C51.7788 241.797 56.2541 243.696 60.9343 243.696H80.7079C85.388 243.696 89.878 241.797 93.1248 238.436L93.1395 238.422L121.922 208.718H94.368C89.6879 208.718 85.1979 206.818 81.951 203.458L58.2725 179.014C55.011 175.653 50.5356 173.754 45.8555 173.754H26.0819C21.4018 173.754 16.9117 175.653 13.6503 179.014L4.81652 188.145C3.58244 189.43 1.66138 189.428 0.42115 188.46L0.421151 208.763ZM0.421146 86.7937C4.05053 74.0252 9.25646 63.3173 16.0196 54.7473C30.2355 36.4544 41.7018 27.7608 68.481 27.7608C95.2602 27.7608 110.982 35.7969 126.281 55.4632C138.756 71.6814 143.846 95.8479 143.846 138.906C143.846 170.466 141.199 191.374 135.275 206.672L134.632 208.338H136.416C153.367 208.338 170.274 208.367 187.137 208.411H187.883L188.234 207.753C198.706 187.868 204 164.593 204 138.541C204 95.7749 189.96 61.6729 162.288 37.1849C132.716 10.4176 106.419 0 68.4518 0C39.3531 0 18.4347 6.75204 0.421143 17.9981L0.421146 86.7937Z" fill="#BFA66B"/>
</svg>
