<svg width="174" height="157" viewBox="0 0 174 157" fill="none" xmlns="http://www.w3.org/2000/svg">
<path d="M102.095 153.254L120.617 134.256L102.941 134.202C99.9389 134.193 97.0624 132.966 94.9862 130.804L79.8448 115.077C77.7592 112.915 74.892 111.687 71.8898 111.678L59.2055 111.64C56.2033 111.63 53.3193 112.84 51.2206 114.989L45.536 120.83C44.4066 121.998 42.391 121.495 42.0112 119.919C39.8524 111.018 38.7769 100.677 38.8125 88.9891C38.8855 65.0983 43.6504 47.0328 52.9838 35.2798C62.1388 23.5731 69.5113 18.0189 86.6895 18.0713C103.868 18.1238 113.938 23.3095 123.713 35.955C131.684 46.383 134.901 61.8953 134.817 89.5164C134.755 109.761 133.016 123.168 129.186 132.97L128.77 134.037L129.915 134.041C140.788 134.074 151.634 134.126 162.451 134.187L162.93 134.188L163.156 133.767C169.912 121.032 173.354 106.111 173.405 89.3999C173.489 61.9663 164.549 40.0631 146.847 24.3004C127.929 7.0718 111.081 0.337625 86.7251 0.263278C58.8984 0.178335 42.704 9.75468 26.9452 24.1593C9.27714 40.1046 0.289122 61.6437 0.208154 88.1683C0.155797 105.32 3.7304 120.665 10.8394 133.78L11.0634 134.193L11.5324 134.195C22.8661 134.126 34.2372 134.077 45.6552 134.036L46.8749 134.04L50.3743 134.051C53.3765 134.06 56.2531 135.287 58.3293 137.449L73.4707 153.176C75.5563 155.338 78.4234 156.565 81.4256 156.575L94.11 156.613C97.1122 156.622 99.9961 155.413 102.085 153.263" fill="#BFA66B"/>
</svg>
