<svg width="82" height="75" viewBox="0 0 82 75" fill="none" xmlns="http://www.w3.org/2000/svg">
<g id="vetor + logo">
<g id="vetor">
<g id="Subtract">
<mask id="path-1-inside-1_127_588" fill="white">
<path d="M48.3312 73.3207L57.0726 64.2994H48.7043C47.2829 64.2994 45.9193 63.7226 44.9332 62.702L37.7419 55.2782C36.7514 54.2576 35.3922 53.6807 33.9709 53.6807H27.9655C26.5442 53.6807 25.1805 54.2576 24.19 55.2782L21.5072 58.0516C20.9742 58.6063 20.0192 58.3711 19.8371 57.6256C18.8021 53.4145 18.278 48.52 18.278 42.9866C18.278 31.6757 20.5078 23.1159 24.9096 17.5381C29.227 11.9825 32.7094 9.3422 40.8423 9.3422C48.9752 9.3422 53.7502 11.7828 58.3963 17.7555C62.1851 22.681 63.7309 30.0205 63.7309 43.0975C63.7309 52.6823 62.9269 59.0322 61.128 63.6782L60.9326 64.1841H61.4745C66.6225 64.1841 71.7572 64.193 76.8786 64.2063H77.1051L77.2117 64.0066C80.3921 57.9673 82 50.8985 82 42.9866C82 29.9983 77.7359 19.6414 69.332 12.2043C60.3507 4.075 52.3643 0.911133 40.8334 0.911133C27.6591 0.911133 20.0058 5.46835 12.5658 12.3108C4.22415 19.8855 0 30.0959 0 42.6538C0 50.7742 1.71453 58.0338 5.09918 64.2329L5.20579 64.4281H5.42788C10.7936 64.3793 16.177 64.3394 21.5827 64.3039H22.1601H23.8169C25.2383 64.3039 26.6019 64.8808 27.588 65.9014L34.7793 73.3251C35.7698 74.3457 37.129 74.9226 38.5504 74.9226H44.5557C45.977 74.9226 47.3407 74.3457 48.3267 73.3251"/>
</mask>
<path d="M57.0726 64.2994L57.7908 64.9953L59.4341 63.2994H57.0726V64.2994ZM44.9332 62.702L45.6524 62.0071L45.6515 62.0062L44.9332 62.702ZM37.7419 55.2782L38.4602 54.5824L38.4595 54.5818L37.7419 55.2782ZM24.19 55.2782L23.4724 54.5818L23.4713 54.5829L24.19 55.2782ZM21.5072 58.0516L20.7884 57.3563L20.7861 57.3587L21.5072 58.0516ZM19.8371 57.6256L20.8085 57.3883L20.8082 57.3869L19.8371 57.6256ZM24.9096 17.5381L25.6946 18.1576L25.6992 18.1517L24.9096 17.5381ZM58.3963 17.7555L59.1889 17.1458L59.1856 17.1415L58.3963 17.7555ZM61.128 63.6782L60.1955 63.3171L60.1952 63.3178L61.128 63.6782ZM60.9326 64.1841L59.9998 63.8237L59.4742 65.1841H60.9326V64.1841ZM76.8786 64.2063L76.876 65.2063H76.8786V64.2063ZM77.1051 64.2063V65.2063H77.7048L77.9873 64.6772L77.1051 64.2063ZM77.2117 64.0066L78.0939 64.4776L78.0966 64.4725L77.2117 64.0066ZM69.332 12.2043L68.6609 12.9458L68.6693 12.9532L69.332 12.2043ZM12.5658 12.3108L13.2381 13.0512L13.2428 13.0469L12.5658 12.3108ZM5.09918 64.2329L5.97688 63.7537H5.97688L5.09918 64.2329ZM5.20579 64.4281L4.32809 64.9073L4.61243 65.4281H5.20579V64.4281ZM5.42788 64.4281V65.4282L5.43697 65.4281L5.42788 64.4281ZM21.5827 64.3039V63.3039L21.5761 63.3039L21.5827 64.3039ZM27.588 65.9014L26.8688 66.5962L26.8697 66.5971L27.588 65.9014ZM34.7793 73.3251L34.061 74.0209L34.0617 74.0216L34.7793 73.3251ZM49.0493 74.0166L57.7908 64.9953L56.3545 63.6036L47.613 72.6248L49.0493 74.0166ZM57.0726 63.2994H48.7043V65.2995H57.0726V63.2994ZM48.7043 63.2994C47.553 63.2994 46.4493 62.832 45.6524 62.0071L44.214 63.3968C45.3893 64.6132 47.0128 65.2995 48.7043 65.2995V63.2994ZM45.6515 62.0062L38.4602 54.5824L37.0237 55.974L44.2149 63.3978L45.6515 62.0062ZM38.4595 54.5818C37.2814 53.3678 35.6636 52.6807 33.9709 52.6807V54.6807C35.1208 54.6807 36.2214 55.1474 37.0243 55.9747L38.4595 54.5818ZM33.9709 52.6807H27.9655V54.6807H33.9709V52.6807ZM27.9655 52.6807C26.2737 52.6807 24.6512 53.3672 23.4724 54.5818L24.9076 55.9747C25.7099 55.148 26.8147 54.6807 27.9655 54.6807V52.6807ZM23.4713 54.5829L20.7884 57.3563L22.2259 58.7469L24.9088 55.9735L23.4713 54.5829ZM20.7861 57.3587C20.7839 57.3611 20.7838 57.3606 20.786 57.3593C20.788 57.3582 20.7898 57.3575 20.791 57.3572C20.7924 57.3568 20.7895 57.3576 20.7848 57.3564C20.7801 57.3553 20.7835 57.3547 20.7915 57.3624C20.7957 57.3664 20.8001 57.3719 20.8038 57.3781C20.8076 57.3846 20.8086 57.3888 20.8085 57.3883L18.8656 57.8629C19.2455 59.4179 21.18 59.8353 22.2282 58.7445L20.7861 57.3587ZM20.8082 57.3869C19.7967 53.2714 19.278 48.4599 19.278 42.9866H17.278C17.278 48.5802 17.8075 53.5576 18.866 57.8643L20.8082 57.3869ZM19.278 42.9866C19.278 31.7761 21.4933 23.4813 25.6946 18.1576L24.1246 16.9186C19.5223 22.7505 17.278 31.5752 17.278 42.9866H19.278ZM25.6992 18.1517C27.8336 15.4052 29.6839 13.485 31.9325 12.23C34.1656 10.9836 36.8864 10.3422 40.8423 10.3422V8.3422C36.6653 8.3422 33.5785 9.02088 30.9578 10.4836C28.3526 11.9376 26.303 14.1154 24.12 16.9245L25.6992 18.1517ZM40.8423 10.3422C44.8088 10.3422 47.8746 10.9373 50.4897 12.2085C53.1032 13.4789 55.3462 15.4632 57.607 18.3695L59.1856 17.1415C56.8002 14.075 54.3327 11.8528 51.364 10.4097C48.3969 8.96741 45.0087 8.3422 40.8423 8.3422V10.3422ZM57.6037 18.3652C61.1732 23.0057 62.7309 30.042 62.7309 43.0975H64.7309C64.7309 29.999 63.1971 22.3564 59.1889 17.1458L57.6037 18.3652ZM62.7309 43.0975C62.7309 52.6512 61.9255 58.849 60.1955 63.3171L62.0605 64.0393C63.9283 59.2155 64.7309 52.7134 64.7309 43.0975H62.7309ZM60.1952 63.3178L59.9998 63.8237L61.8654 64.5445L62.0608 64.0386L60.1952 63.3178ZM60.9326 65.1841H61.4745V63.1841H60.9326V65.1841ZM61.4745 65.1841C66.6214 65.1841 71.7552 65.1929 76.876 65.2063L76.8812 63.2063C71.7593 63.193 66.6236 63.1841 61.4745 63.1841V65.1841ZM76.8786 65.2063H77.1051V63.2063H76.8786V65.2063ZM77.9873 64.6772L78.0939 64.4775L76.3296 63.5356L76.223 63.7353L77.9873 64.6772ZM78.0966 64.4725C81.3639 58.268 83 51.0346 83 42.9866H81C81 50.7624 79.4202 57.6666 76.3269 63.5406L78.0966 64.4725ZM83 42.9866C83 29.7615 78.6476 19.1129 69.9947 11.4555L68.6693 12.9532C76.8242 20.1699 81 30.2351 81 42.9866H83ZM70.0031 11.4629C65.4501 7.34191 61.1082 4.44232 56.4072 2.57956C51.7038 0.71583 46.6942 -0.0888672 40.8334 -0.0888672V1.91113C46.5035 1.91113 51.2526 2.68837 55.6704 4.43891C60.0907 6.19041 64.2325 8.93741 68.6609 12.9457L70.0031 11.4629ZM40.8334 -0.0888672C34.1243 -0.0888672 28.7766 1.07293 24.1433 3.13116C19.5166 5.18646 15.6522 8.11375 11.8889 11.5748L13.2428 13.0469C16.9195 9.66542 20.6017 6.89287 24.9552 4.95894C29.3021 3.02794 34.3682 1.91113 40.8334 1.91113V-0.0888672ZM11.8936 11.5705C3.31772 19.3578 -1 29.8503 -1 42.6538H1C1 30.3416 5.13058 20.4132 13.2381 13.0511L11.8936 11.5705ZM-1 42.6538C-1 50.9163 0.745219 58.3452 4.22149 64.7121L5.97688 63.7537C2.68385 57.7224 1 50.6322 1 42.6538H-1ZM4.22149 64.7121L4.32809 64.9073L6.08348 63.9489L5.97688 63.7537L4.22149 64.7121ZM5.20579 65.4281H5.42788V63.4281H5.20579V65.4281ZM5.43697 65.4281C10.8016 65.3793 16.1841 65.3394 21.5893 65.3039L21.5761 63.3039C16.1699 63.3394 10.7856 63.3794 5.41878 63.4282L5.43697 65.4281ZM21.5827 65.3039H22.1601V63.3039H21.5827V65.3039ZM22.1601 65.3039H23.8169V63.3039H22.1601V65.3039ZM23.8169 65.3039C24.9682 65.3039 26.0719 65.7714 26.8688 66.5962L28.3072 65.2065C27.1319 63.9901 25.5084 63.3039 23.8169 63.3039V65.3039ZM26.8697 66.5971L34.061 74.0209L35.4975 72.6294L28.3063 65.2056L26.8697 66.5971ZM34.0617 74.0216C35.2398 75.2355 36.8576 75.9226 38.5504 75.9226V73.9226C37.4004 73.9226 36.2998 73.456 35.4969 72.6287L34.0617 74.0216ZM38.5504 75.9226H44.5557V73.9226H38.5504V75.9226ZM44.5557 75.9226C46.2471 75.9226 47.8707 75.2364 49.0459 74.02L47.6076 72.6303C46.8107 73.4551 45.7069 73.9226 44.5557 73.9226V75.9226Z" fill="#BFA66B" mask="url(#path-1-inside-1_127_588)"/>
</g>
</g>
</g>
</svg>
