<svg width="152" height="14" viewBox="0 0 152 14" fill="none" xmlns="http://www.w3.org/2000/svg">
<rect width="152" height="14" fill="#1E1E1E"/>
<g id="Desktop" clip-path="url(#clip0_0_1)">
<rect width="1366" height="12565" transform="translate(-129 -1922)" fill="white"/>
<g id="Projeto">
<g id="Group 48">
<g id="h2">
<g id="linhas">
<g id="Vector">
<path d="M0.61 0.0378776H0V14H0.61V0.0378776Z" fill="#BFA66B"/>
<path d="M5.92 0.0378776H5.31V14H5.92V0.0378776Z" fill="#BFA66B"/>
<path d="M11.22 0.0378776H10.61V14H11.22V0.0378776Z" fill="#BFA66B"/>
<path d="M16.53 0.0378776H15.92V14H16.53V0.0378776Z" fill="#BFA66B"/>
<path d="M21.23 0.0378776V14H21.84V0.0378776H21.23Z" fill="#BFA66B"/>
<path d="M32.75 0.0378776H32.14V14H32.75V0.0378776Z" fill="#BFA66B"/>
<path d="M43.65 0.0378776H43.04V14H43.65V0.0378776Z" fill="#BFA66B"/>
<path d="M54.56 0.0378776H53.95V14H54.56V0.0378776Z" fill="#BFA66B"/>
<path d="M65.46 0.0378776H64.85V14H65.46V0.0378776Z" fill="#BFA66B"/>
<path d="M76.37 0.0378776H75.76V14H76.37V0.0378776Z" fill="#BFA66B"/>
<path d="M87.27 0.0378776H86.66V14H87.27V0.0378776Z" fill="#BFA66B"/>
<path d="M108.79 0.0378776H108.18V14H108.79V0.0378776Z" fill="#BFA66B"/>
<path d="M130.31 0.0378776H129.7V14H130.31V0.0378776Z" fill="#BFA66B"/>
<path d="M29.56 0H28.95V13.9621H29.56V0Z" fill="#BFA66B"/>
<path d="M151.83 0.0378776H151.22V14H151.83V0.0378776Z" fill="#BFA66B"/>
</g>
</g>
</g>
</g>
</g>
<g id="Group 34">
</g>
</g>
<defs>
<clipPath id="clip0_0_1">
<rect width="1366" height="12565" fill="white" transform="translate(-129 -1922)"/>
</clipPath>
</defs>
</svg>
