<svg width="16" height="16" viewBox="0 0 16 16" fill="none" xmlns="http://www.w3.org/2000/svg">
<path id="Vector" d="M14.8875 8.83348L8.28746 15.4335C8.18746 15.5335 8.07913 15.6045 7.96246 15.6465C7.8458 15.6885 7.7208 15.7091 7.58746 15.7085C7.45413 15.7085 7.32913 15.6875 7.21246 15.6455C7.0958 15.6035 6.98746 15.5328 6.88746 15.4335L0.287462 8.83348C0.104129 8.65015 0.00846271 8.42081 0.000462693 8.14548C-0.00753732 7.87015 0.088129 7.63281 0.287462 7.43348C0.470796 7.23348 0.700129 7.12915 0.975463 7.12048C1.2508 7.11181 1.48813 7.20781 1.68746 7.40848L6.58746 12.3085L6.58746 1.13348C6.58746 0.850146 6.68346 0.612481 6.87546 0.42048C7.06746 0.22848 7.3048 0.132813 7.58746 0.13348C7.8708 0.13348 8.10846 0.229147 8.30046 0.42048C8.49246 0.611814 8.58813 0.849479 8.58746 1.13348L8.58746 12.3085L13.4875 7.40848C13.6708 7.22515 13.9041 7.12915 14.1875 7.12048C14.4708 7.11181 14.7041 7.20781 14.8875 7.40848C15.0875 7.59181 15.1875 7.82515 15.1875 8.10848C15.1875 8.39181 15.0875 8.63348 14.8875 8.83348Z" fill="white"/>
</svg>
