<svg width="479" height="99" viewBox="0 0 479 99" fill="none" xmlns="http://www.w3.org/2000/svg">
<path d="M606.784 0H608V98.6H606.784V0Z" fill="#B29E6B"/>
<path d="M596.208 0H597.424V98.6H596.208V0Z" fill="#B29E6B"/>
<path d="M585.627 0H586.843V98.6H585.627V0Z" fill="#B29E6B"/>
<path d="M575.051 0H576.267V98.6H575.051V0Z" fill="#B29E6B"/>
<path d="M564.475 0H565.691V98.6H564.475V0Z" fill="#B29E6B"/>
<path d="M553.893 0H555.109V98.6H553.893V0Z" fill="#B29E6B"/>
<path d="M543.317 0H544.533V98.6H543.317V0Z" fill="#B29E6B"/>
<path d="M532.741 0H533.957V98.6H532.741V0Z" fill="#B29E6B"/>
<path d="M522.16 0H523.376V98.6H522.16V0Z" fill="#B29E6B"/>
<path d="M511.584 0H512.8V98.6H511.584V0Z" fill="#B29E6B"/>
<path d="M501.008 0H502.224V98.6H501.008V0Z" fill="#B29E6B"/>
<path d="M490.427 0H491.643V98.6H490.427V0Z" fill="#B29E6B"/>
<path d="M479.851 0H481.067V98.6H479.851V0Z" fill="#B29E6B"/>
<path d="M469.275 0H470.491V98.6H469.275V0Z" fill="#B29E6B"/>
<path d="M447.541 0H448.757V98.6H447.541V0Z" fill="#B29E6B"/>
<path d="M425.808 0H427.024V98.6H425.808V0Z" fill="#B29E6B"/>
<path d="M404.075 0H405.291V98.6H404.075V0Z" fill="#B29E6B"/>
<path d="M382.341 0H383.557V98.6H382.341V0Z" fill="#B29E6B"/>
<path d="M360.608 0H361.824V98.6H360.608V0Z" fill="#B29E6B"/>
<path d="M338.875 0H340.091V98.6H338.875V0Z" fill="#B29E6B"/>
<path d="M295.989 0H297.205V98.6H295.989V0Z" fill="#B29E6B"/>
<path d="M253.099 0H254.315V98.6H253.099V0Z" fill="#B29E6B"/>
<path d="M210.213 0H211.429V98.6H210.213V0Z" fill="#B29E6B"/>
<path d="M167.323 0H168.539V98.6H167.323V0Z" fill="#B29E6B"/>
<path d="M83.6639 0H84.88V98.6H83.6639V0Z" fill="#B29E6B"/>
<path d="M-6.10352e-05 0H1.216V98.6H-6.10352e-05V0Z" fill="#B29E6B"/>
</svg>
