<svg width="57" height="1739" viewBox="0 0 57 1739" fill="none" xmlns="http://www.w3.org/2000/svg">
<path d="M-94.39 4.70494H-95V1739H-94.39V4.70494Z" fill="#BFA66B"/>
<path d="M-89.08 4.70494H-89.69V1739H-89.08V4.70494Z" fill="#BFA66B"/>
<path d="M-83.78 4.70494H-84.39V1739H-83.78V4.70494Z" fill="#BFA66B"/>
<path d="M-78.47 4.70494H-79.08V1739H-78.47V4.70494Z" fill="#BFA66B"/>
<path d="M-73.77 4.70494V1739H-73.16V4.70494H-73.77Z" fill="#BFA66B"/>
<path d="M-62.25 4.70494H-62.86V1739H-62.25V4.70494Z" fill="#BFA66B"/>
<path d="M-51.35 4.70494H-51.96V1739H-51.35V4.70494Z" fill="#BFA66B"/>
<path d="M-40.44 4.70494H-41.05V1739H-40.44V4.70494Z" fill="#BFA66B"/>
<path d="M-29.54 4.70494H-30.15V1739H-29.54V4.70494Z" fill="#BFA66B"/>
<path d="M-18.63 4.70494H-19.24V1739H-18.63V4.70494Z" fill="#BFA66B"/>
<path d="M-7.72996 4.70494H-8.33995V1739H-7.72996V4.70494Z" fill="#BFA66B"/>
<path d="M13.79 4.70494H13.18V1739H13.79V4.70494Z" fill="#BFA66B"/>
<path d="M35.31 4.70494H34.7V1739H35.31V4.70494Z" fill="#BFA66B"/>
<path d="M-65.44 0H-66.05V1734.3H-65.44V0Z" fill="#BFA66B"/>
<path d="M56.83 4.70494H56.22V1739H56.83V4.70494Z" fill="#BFA66B"/>
</svg>
