<svg width="165" height="84" viewBox="0 0 165 84" fill="none" xmlns="http://www.w3.org/2000/svg">
<path d="M1.87258 73.8301H0.247465V83.2424H1.87258V73.8301Z" fill="black"/>
<path d="M16.1189 83.2424H14.4855L10.295 76.5606V83.2424H8.65338V73.8301H10.295L14.5021 80.5284V73.8301H16.1189V83.2424Z" fill="black"/>
<path d="M30.0022 80.1737C29.9115 81.1801 29.5403 81.9638 28.8886 82.5248C28.2452 83.0857 27.379 83.3662 26.3066 83.3662C25.556 83.3662 24.896 83.1847 24.3268 82.83C23.7576 82.4753 23.3122 81.9721 23.007 81.3121C22.7017 80.6522 22.5367 79.8932 22.5202 79.0271V78.1445C22.5202 77.2535 22.677 76.4781 22.9904 75.7934C23.3039 75.117 23.7576 74.5973 24.3433 74.2261C24.929 73.8631 25.6137 73.6734 26.3809 73.6734C27.4203 73.6734 28.2534 73.9539 28.8886 74.5148C29.5238 75.0758 29.895 75.8759 29.994 76.9071H28.3689C28.2947 76.2307 28.0967 75.7439 27.775 75.4387C27.4615 75.1417 26.9913 74.9933 26.3809 74.9933C25.6715 74.9933 25.1187 75.249 24.7393 75.7687C24.3598 76.2884 24.1619 77.0473 24.1536 78.0537V78.8869C24.1536 79.9015 24.3351 80.6852 24.698 81.2131C25.061 81.7493 25.5972 82.0133 26.2984 82.0133C26.9418 82.0133 27.4203 81.8648 27.7502 81.5761C28.072 81.2874 28.2782 80.8089 28.3607 80.1325H29.9858L30.0022 80.1737Z" fill="black"/>
<path d="M42.1038 78.2847C42.1038 77.2453 41.9058 76.4451 41.5099 75.8841C41.1139 75.3315 40.553 75.051 39.8353 75.051C39.1176 75.051 38.5732 75.3315 38.1772 75.8841C37.7812 76.4368 37.575 77.2205 37.5668 78.2352V78.7796C37.5668 79.8108 37.7647 80.611 38.1689 81.1802C38.5732 81.7493 39.1341 82.0298 39.8435 82.0298C40.5529 82.0298 41.1222 81.7576 41.5181 81.2049C41.9058 80.6522 42.1038 79.8438 42.1038 78.7879V78.2847ZM43.7371 78.7796C43.7371 79.7035 43.5804 80.5119 43.2587 81.2049C42.937 81.8978 42.4833 82.434 41.8893 82.8052C41.2954 83.1764 40.6107 83.3662 39.8435 83.3662C39.0763 83.3662 38.3999 83.1764 37.806 82.8052C37.212 82.434 36.7501 81.8978 36.4201 81.2131C36.0984 80.5202 35.9334 79.7283 35.9251 78.8291V78.3012C35.9251 77.3855 36.0901 76.5689 36.4119 75.8677C36.7336 75.1665 37.1955 74.6303 37.7895 74.2508C38.3834 73.8796 39.0599 73.6899 39.827 73.6899C40.5942 73.6899 41.2706 73.8714 41.8646 74.2426C42.4585 74.6138 42.9122 75.1417 43.234 75.8347C43.5557 76.5276 43.7206 77.3278 43.7289 78.2517V78.7796H43.7371Z" fill="black"/>
<path d="M51.7718 78.3012H53.4546C54.0073 78.3012 54.4363 78.1609 54.7498 77.8805C55.0632 77.6 55.2117 77.2205 55.2117 76.7421C55.2117 76.2636 55.0715 75.8512 54.7828 75.5707C54.4941 75.2985 54.0651 75.15 53.5042 75.1418H51.7801V78.2929L51.7718 78.3012ZM53.5949 79.621H51.7718V83.2424H50.1385V73.8301H53.4464C54.5353 73.8301 55.3685 74.0776 55.9624 74.5643C56.5564 75.051 56.8451 75.7604 56.8451 76.6843C56.8451 77.3113 56.6966 77.8392 56.3914 78.2682C56.0862 78.6889 55.6654 79.0189 55.121 79.2498L57.2328 83.1682V83.2507H55.484L53.5949 79.6293V79.621Z" fill="black"/>
<path d="M64.7973 78.4332H66.7606C67.338 78.4332 67.7835 78.2929 68.0887 78.0207C68.3939 77.7485 68.5507 77.3525 68.5507 76.8328C68.5507 76.3131 68.3939 75.9172 68.0805 75.612C67.767 75.3067 67.3463 75.15 66.8018 75.1418H64.789V78.4249L64.7973 78.4332ZM64.7973 79.753V83.2424H63.1639V73.8301H66.7606C67.8082 73.8301 68.6497 74.1023 69.2683 74.655C69.887 75.1995 70.1922 75.9254 70.1922 76.8328C70.1922 77.7402 69.887 78.4744 69.2848 78.9858C68.6826 79.4973 67.833 79.753 66.7441 79.753H64.7973Z" fill="black"/>
<path d="M82.2691 78.2847C82.2691 77.2453 82.071 76.4451 81.6751 75.8841C81.2791 75.3315 80.7182 75.051 80.0005 75.051C79.2828 75.051 78.7384 75.3315 78.3424 75.8841C77.9465 76.4368 77.7403 77.2205 77.732 78.2352V78.7796C77.732 79.8108 77.93 80.611 78.3342 81.1802C78.7384 81.7493 79.2993 82.0298 80.0087 82.0298C80.7182 82.0298 81.2874 81.7576 81.6833 81.2049C82.0711 80.6522 82.2691 79.8438 82.2691 78.7879V78.2847ZM83.9024 78.7796C83.9024 79.7035 83.7456 80.5119 83.4239 81.2049C83.1022 81.8978 82.6485 82.434 82.0546 82.8052C81.4606 83.1764 80.7759 83.3662 80.0087 83.3662C79.2416 83.3662 78.5652 83.1764 77.9712 82.8052C77.3773 82.434 76.9153 81.8978 76.5854 81.2131C76.2554 80.5202 76.0986 79.7283 76.0904 78.8291V78.3012C76.0904 77.3855 76.2554 76.5689 76.5771 75.8677C76.8988 75.1665 77.3608 74.6303 77.9547 74.2508C78.5486 73.8796 79.2251 73.6899 79.9923 73.6899C80.7594 73.6899 81.4359 73.8714 82.0298 74.2426C82.6237 74.6138 83.0775 75.1417 83.3992 75.8347C83.7209 76.5276 83.8859 77.3278 83.8941 78.2517V78.7796H83.9024Z" fill="black"/>
<path d="M91.9371 78.3012H93.6199C94.1726 78.3012 94.6015 78.1609 94.915 77.8805C95.2285 77.6 95.377 77.2205 95.377 76.7421C95.377 76.2636 95.2367 75.8512 94.948 75.5707C94.6593 75.2985 94.2303 75.15 93.6694 75.1418H91.9453V78.2929L91.9371 78.3012ZM93.7601 79.621H91.9371V83.2424H90.3037V73.8301H93.6117C94.7006 73.8301 95.5337 74.0776 96.1277 74.5643C96.7216 75.051 97.0103 75.7604 97.0103 76.6843C97.0103 77.3113 96.8618 77.8392 96.5566 78.2682C96.2514 78.6889 95.8307 79.0189 95.2862 79.2498L97.398 83.1682V83.2507H95.6492L93.7601 79.6293V79.621Z" fill="black"/>
<path d="M105.408 79.7283H108.138L106.777 75.8264L105.416 79.7283H105.408ZM104.946 81.0481L104.187 83.2424H102.488L106.043 73.8301H107.512L111.075 83.2424H109.368L108.6 81.0481H104.946Z" fill="black"/>
<path d="M118.541 75.15V81.9391H119.605C120.463 81.9391 121.123 81.6751 121.576 81.1307C122.038 80.5945 122.269 79.8273 122.278 78.8209V78.2929C122.278 77.2701 122.055 76.4946 121.609 75.9502C121.164 75.414 120.52 75.1418 119.679 75.1418H118.532L118.541 75.15ZM116.907 83.2424V73.8301H119.687C120.52 73.8301 121.255 74.0116 121.898 74.3828C122.542 74.7541 123.045 75.282 123.391 75.9584C123.746 76.6431 123.919 77.4185 123.919 78.3012V78.7714C123.919 79.6623 123.738 80.446 123.383 81.1224C123.028 81.7988 122.517 82.3185 121.865 82.6897C121.213 83.0609 120.454 83.2424 119.605 83.2424H116.899H116.907Z" fill="black"/>
<path d="M136.194 78.2847C136.194 77.2453 135.996 76.4451 135.6 75.8841C135.204 75.3315 134.643 75.051 133.925 75.051C133.208 75.051 132.663 75.3315 132.267 75.8841C131.871 76.4368 131.665 77.2205 131.657 78.2352V78.7796C131.657 79.8108 131.855 80.611 132.259 81.1802C132.663 81.7493 133.224 82.0298 133.934 82.0298C134.643 82.0298 135.212 81.7576 135.6 81.2049C135.988 80.6522 136.186 79.8438 136.186 78.7879V78.2929L136.194 78.2847ZM137.827 78.7796C137.827 79.7035 137.67 80.5119 137.349 81.2049C137.027 81.8978 136.573 82.434 135.979 82.8052C135.385 83.1764 134.709 83.3662 133.934 83.3662C133.158 83.3662 132.49 83.1764 131.896 82.8052C131.302 82.434 130.84 81.8978 130.51 81.2131C130.188 80.5202 130.024 79.7283 130.015 78.8291V78.3012C130.015 77.3855 130.18 76.5689 130.502 75.8677C130.832 75.1665 131.286 74.6303 131.88 74.2508C132.473 73.8796 133.15 73.6899 133.917 73.6899C134.684 73.6899 135.361 73.8714 135.955 74.2426C136.549 74.6138 137.002 75.1417 137.332 75.8347C137.654 76.5276 137.819 77.3278 137.819 78.2517V78.7796H137.827Z" fill="black"/>
<path d="M145.862 78.3012H147.545C148.097 78.3012 148.526 78.1609 148.84 77.8805C149.153 77.6 149.302 77.2205 149.302 76.7421C149.302 76.2636 149.162 75.8512 148.873 75.5707C148.584 75.2985 148.155 75.15 147.586 75.1418H145.862V78.3012ZM147.685 79.621H145.862V83.2424H144.229V73.8301H147.537C148.625 73.8301 149.459 74.0776 150.053 74.5643C150.646 75.051 150.935 75.7604 150.935 76.6843C150.935 77.3113 150.787 77.8392 150.481 78.2682C150.176 78.6889 149.756 79.0189 149.211 79.2498L151.323 83.1682V83.2507H149.574L147.685 79.6293V79.621Z" fill="black"/>
<path d="M159.333 79.7283H162.063L160.702 75.8264L159.341 79.7283H159.333ZM158.871 81.0481L158.112 83.2424H156.413L159.968 73.8301H161.436L165 83.2424H163.292L162.525 81.0481H158.871Z" fill="black"/>
<path d="M163.589 0H0V70.1097H163.589V0Z" fill="#0D2B6B"/>
<path d="M49.957 40.9737H34.3249V28.5917H49.957V40.9737ZM49.957 8.76888V21.1509H38.4412C33.6319 21.1509 30.0105 22.347 27.5688 24.7393C24.8548 27.4037 23.4937 30.8437 23.4937 35.0425C23.4937 39.2414 24.9455 42.8462 27.8327 45.6179C30.5219 48.1834 33.8134 49.4703 37.6822 49.4703C40.5282 49.4703 43.069 48.6784 45.3045 47.0946C46.7399 46.0882 48.2907 44.43 49.9487 42.112V57.8185C45.5189 60.1613 40.7839 61.3326 35.7519 61.3326C28.204 61.3326 21.8851 58.9156 16.8036 54.0816C14.2133 51.6151 12.2253 48.6702 10.8394 45.2468C9.47831 41.9223 8.80191 38.4907 8.80191 34.9435C8.80191 27.8245 11.2436 21.7448 16.1271 16.7128C19.2453 13.5204 22.611 11.3921 26.2076 10.3362C29.7548 9.30509 34.1021 8.78539 39.2331 8.78539H49.957V8.76888Z" fill="#FFE000"/>
<path d="M63.3536 8.87612H80.38C87.6805 8.87612 93.5704 10.7322 98.0497 14.4361C101.523 17.2985 104.105 20.8622 105.787 25.1353C107.05 28.3607 107.676 31.7098 107.676 35.1828C107.676 41.7821 105.54 47.54 101.259 52.473C98.2394 55.9212 94.8985 58.2804 91.2524 59.5261C88.0269 60.648 84.2076 61.2089 79.7778 61.2089H63.3536V28.9959H77.5093V48.9011C80.1985 48.8269 82.3185 48.5546 83.8529 48.1009C85.3872 47.639 86.8226 46.8471 88.1589 45.7252C89.6438 44.496 90.8234 42.9205 91.6896 40.9902C92.5558 39.0598 92.993 37.0718 92.993 35.026C92.993 32.9802 92.5475 30.9922 91.6566 29.0619C90.7657 27.1316 89.5448 25.5394 88.0104 24.2856C86.4019 22.9822 84.5871 22.1656 82.5743 21.8273C81.0647 21.5716 79.3653 21.4479 77.4763 21.4479H63.3536V8.86786V8.87612Z" fill="#FFE000"/>
<path d="M133.859 34.4568C135.798 32.6915 137.11 31.2891 137.794 30.258C138.801 28.7649 139.304 27.346 139.304 26.0261C139.304 24.2113 138.528 22.7265 136.986 21.5716C136.029 20.8622 134.742 20.5075 133.125 20.5075C131.187 20.5075 129.652 21.0354 128.522 22.0913C127.417 23.172 126.864 24.5083 126.864 26.1087C126.864 27.577 127.417 29.0536 128.522 30.5219C129.157 31.4046 130.444 32.7162 132.383 34.4568C130.419 36.1479 129.042 37.4595 128.258 38.3999C126.881 40.091 126.196 41.8068 126.196 43.5556C126.196 45.3045 126.773 46.6243 127.928 47.7545C129.182 49.0084 130.931 49.6353 133.191 49.6353C135.666 49.6353 137.547 48.8351 138.825 47.243C139.708 46.1376 140.153 44.9168 140.153 43.5639C140.153 41.5511 139.246 39.5631 137.431 37.5998C136.771 36.8903 135.583 35.8427 133.859 34.4733M146.481 34.0691C149.03 35.6612 150.811 37.1625 151.818 38.5566C153.41 40.7674 154.21 43.2834 154.21 46.1046C154.21 51.1366 151.999 55.022 147.586 57.7772C143.882 60.0623 138.974 61.2006 132.861 61.2006C129.496 61.2006 126.6 60.8789 124.175 60.2272C121.741 59.5755 119.539 58.5527 117.551 57.1503C113.946 54.5766 112.139 51.0047 112.139 46.4346C112.139 43.1432 113.154 40.3055 115.191 37.8967C116.099 36.8408 117.551 35.5622 119.539 34.0691C117.501 32.5265 116.066 31.1406 115.233 29.9115C113.781 27.7997 113.063 25.4817 113.063 22.9575C113.063 20.7962 113.583 18.7834 114.631 16.9191C115.67 15.0548 117.13 13.5452 118.994 12.3903C122.599 10.1053 127.45 8.96685 133.538 8.96685C139.626 8.96685 144.121 10.196 147.636 12.646C149.401 13.8751 150.787 15.4672 151.793 17.4305C152.676 19.1711 153.121 21.0107 153.121 22.9492C153.121 25.9932 152.041 28.6906 149.879 31.0499C149.195 31.8088 148.064 32.8152 146.497 34.0691" fill="#FFE000"/>
<path d="M61.1099 56.8533C61.1099 59.3199 59.1136 61.3161 56.6471 61.3161C54.1806 61.3161 52.1843 59.3199 52.1843 56.8533C52.1843 54.3868 54.1806 52.3905 56.6471 52.3905C59.1136 52.3905 61.1099 54.3868 61.1099 56.8533Z" fill="#00B2E3"/>
</svg>
