<svg width="94" height="23" viewBox="0 0 94 23" fill="none" xmlns="http://www.w3.org/2000/svg">
<path d="M38.9113 17.0641H31.1549V13.3336H39.096C40.0932 13.426 40.8412 14.2293 40.8412 15.1804C40.8504 16.2146 40.0009 17.0641 38.9113 17.0641ZM31.1642 4.86623H39.3915C40.2872 5.00474 40.9982 5.76191 40.9982 6.66681C40.9982 7.57172 40.2872 8.41202 39.3453 8.51357H31.2565L31.1642 4.86623ZM42.6972 10.7759C45.6797 9.83401 46.1968 7.47016 46.1968 5.53106C46.1968 2.54853 44.0176 0 37.5447 0H25.4392V22.2166H37.4986C44.0269 22.2166 46.4369 19.0032 46.4369 15.836C46.4277 12.004 42.6972 10.7758 42.6972 10.7758L42.6972 10.7759Z" fill="#003F2D"/>
<path d="M73.5198 0.0463867H93.945V4.86644H79.1986V8.4584H92.486V13.3246H79.1986V17.2028H93.945V22.3091H73.5198V0.0463867Z" fill="#003F2D"/>
<path d="M64.7291 6.94407C64.6368 7.65508 63.8796 8.45843 62.8824 8.45843H54.8951V4.91263H62.8824C63.8242 4.91263 64.5814 5.57747 64.7291 6.47316V6.94407ZM61.6081 0.0464086H49.2717V22.3184H54.9413V13.3339H61.1834C62.984 13.38 64.3506 14.7559 64.3506 16.5011V22.3184H69.9278V15.1345C69.9278 11.8288 66.5667 10.8315 66.5667 10.8315C66.5667 10.8315 70.0201 9.83425 70.0201 5.91909C69.974 1.03441 65.671 0.0464086 61.6081 0.0464086Z" fill="#003F2D"/>
<path d="M21.7549 16.9166C21.6625 16.9166 13.9985 17.0551 11.3576 16.8242C7.1008 16.4457 5.58647 13.4169 5.58647 10.9608C5.58647 7.88591 7.76566 5.61438 11.1637 5.18963C12.7704 5.00495 21.6164 5.09729 21.7087 5.09729H21.8934V0.0463867H11.6808C10.545 0.0925568 8.69825 0.231067 6.81456 0.942073C5.06936 1.74542 3.45345 2.97351 2.27153 4.48786C0.803346 6.42696 0 8.69849 0 11.1085C0 11.8657 0.0461701 12.6229 0.18468 13.3339C0.895686 16.695 3.21336 19.4836 6.51909 20.9887C7.65484 21.4596 9.35387 22.0321 12.8535 22.2168L14.7464 22.263H21.9303V16.9166L21.7549 16.9166Z" fill="#003F2D"/>
</svg>
