<svg width="145" height="19" viewBox="0 0 145 19" fill="none" xmlns="http://www.w3.org/2000/svg">
<path d="M93.4061 3.18742C92.4985 3.18742 91.7548 3.92202 91.7548 4.81848C91.7548 5.49083 92.2338 5.98886 93.0909 6.81062L93.154 6.87287C94.591 5.97641 95.07 5.55308 95.07 4.81848C95.07 3.92202 94.3263 3.18742 93.4187 3.18742M92.6876 10.9194C91.2631 11.791 90.5825 12.426 90.5825 13.4967C90.5825 14.7667 91.6287 15.8001 92.9145 15.8001C93.5321 15.8001 94.0615 15.5885 94.5658 15.1278L95.7633 13.945L92.7002 10.9194H92.6876ZM92.9145 18.9875C89.8513 18.9875 87.3555 16.5223 87.3555 13.4967C87.3555 11.0066 88.9185 9.58716 90.3429 8.61599C89.3849 7.63237 88.5278 6.48689 88.5278 4.81848C88.5152 2.16645 90.7085 0 93.4061 0C96.1036 0 98.2844 2.16645 98.2844 4.81848C98.2844 6.97248 96.9608 8.20511 95.486 9.17628L98.0322 11.6913L101.801 7.96854L102.873 11.4174L100.314 13.945L105.091 18.6763H100.528L98.0196 16.211L96.8221 17.3938C95.7759 18.4273 94.3767 19 92.8893 19" fill="#1D1D1B"/>
<path d="M6.25228 8.36697C7.13466 8.36697 7.86577 8.14286 8.42041 7.69463C8.97505 7.2464 9.23976 6.62385 9.23976 5.78965C9.23976 4.95544 8.97505 4.32045 8.42041 3.88467C7.86577 3.43643 7.13466 3.21232 6.25228 3.21232H3.55472V8.39187H6.25228V8.36697ZM0 18.6763V0H6.20186C7.17248 0 8.06746 0.136959 8.8616 0.385976C9.66835 0.647444 10.3742 1.02097 10.9541 1.50655C11.5339 1.99214 12.0003 2.60223 12.3155 3.32438C12.6306 4.04653 12.7945 4.86828 12.7945 5.77719C12.7945 6.68611 12.6306 7.50786 12.3155 8.21756C12.0003 8.92726 11.5339 9.53735 10.9541 10.0229C10.3742 10.5085 9.66835 10.882 8.8616 11.1435C8.05486 11.405 7.15987 11.5295 6.20186 11.5295H3.55472V18.6638H0V18.6763Z" fill="#1D1D1B"/>
<path d="M23.3956 10.6206C23.3326 10.2969 23.2318 9.99803 23.0805 9.71166C22.904 9.36304 22.6645 9.06422 22.3872 8.82765C22.1099 8.57864 21.7695 8.39187 21.3914 8.24246C21.0132 8.1055 20.5972 8.0308 20.156 8.0308C19.7149 8.0308 19.3241 8.11796 18.9459 8.27982C18.5678 8.44168 18.2274 8.66579 17.9375 8.91481C17.6476 9.16383 17.4081 9.4751 17.219 9.81127C17.0803 10.0852 16.9669 10.3467 16.9039 10.6206H23.3956ZM20.3577 18.9875C19.3493 18.9875 18.4039 18.8132 17.5593 18.4771C16.7148 18.1409 15.9711 17.6553 15.366 17.0452C14.7609 16.4351 14.2819 15.7005 13.929 14.8663C13.5886 14.0321 13.4122 13.0858 13.4122 12.0773C13.4122 11.0688 13.5886 10.1723 13.929 9.33814C14.2693 8.50393 14.7483 7.75688 15.3534 7.14679C15.9584 6.5367 16.6896 6.03866 17.5089 5.69004C18.3283 5.34142 19.2359 5.1671 20.1939 5.1671C21.1519 5.1671 22.0721 5.34142 22.8788 5.69004C23.6856 6.03866 24.3915 6.52425 24.9839 7.14679C25.5764 7.76933 26.0302 8.50393 26.3579 9.33814C26.6856 10.1723 26.8495 11.0937 26.8495 12.0773C26.8495 12.3263 26.8495 12.6376 26.8243 12.9987V13.173H16.866C16.9165 13.5465 17.0299 13.8827 17.1938 14.194C17.3955 14.5675 17.6602 14.8912 17.9753 15.1651C18.2904 15.4391 18.6686 15.6507 19.0846 15.8126C19.5006 15.9744 19.9418 16.0491 20.3955 16.0491C21.2023 16.0491 21.8326 15.8748 22.299 15.5387C22.778 15.19 23.194 14.7418 23.5469 14.194L23.6351 14.057L26.4714 15.3893L26.3831 15.5636C25.8285 16.597 25.0217 17.4312 24.0133 18.0537C23.0049 18.6763 21.7695 18.9875 20.3703 18.9875" fill="#1D1D1B"/>
<path d="M29.0681 18.6763V5.49083H32.4589V7.13434C32.7741 6.64875 33.19 6.25033 33.7069 5.92661C34.438 5.46592 35.2573 5.22936 36.1397 5.22936C36.4422 5.22936 36.6439 5.25426 36.9086 5.31651V8.77785C36.9086 8.77785 36.6313 8.69069 36.48 8.66579C36.3288 8.64089 36.2153 8.61599 35.938 8.60354C34.854 8.60354 34.022 9.01442 33.4043 9.76147C32.7867 10.521 32.4841 11.5419 32.4841 12.8244V18.6514H29.0681V18.6763Z" fill="#1D1D1B"/>
<path d="M39.5432 0V18.6763H42.9592V13.4967L43.413 13.0858L47.9762 18.6763H52.2242L46.0223 11.2556L51.8586 5.49083H47.5728L42.9592 10.0727V0H39.5432Z" fill="#1D1D1B"/>
<path d="M55.552 4.10878C54.9974 4.10878 54.5058 3.90957 54.1024 3.51114C53.699 3.11271 53.4973 2.62713 53.4973 2.07929C53.4973 1.53145 53.699 1.02097 54.1024 0.610092C54.4932 0.199214 54.9848 0 55.552 0C56.1445 0 56.6487 0.211664 57.0521 0.622543C57.4428 1.03342 57.6445 1.519 57.6445 2.06684C57.6445 2.61468 57.4428 3.10026 57.0521 3.49869C56.6613 3.89712 56.1571 4.10878 55.552 4.10878Z" fill="#1D1D1B"/>
<path d="M53.8377 5.49083V18.6763H57.279V5.49083H53.8377Z" fill="#1D1D1B"/>
<path d="M68.939 18.6763V11.3552C68.939 10.4089 68.6995 9.66186 68.2457 9.13892C67.7919 8.61599 67.1112 8.35452 66.2414 8.35452C65.3716 8.35452 64.6909 8.65334 64.1741 9.25098C63.6573 9.86107 63.38 10.6953 63.38 11.7536V18.6887H59.9387V5.49083H63.38V6.82307C63.7455 6.39974 64.1867 6.03866 64.7036 5.75229C65.3969 5.36632 66.2162 5.17955 67.1616 5.17955C68.8003 5.17955 70.0861 5.69004 71.0063 6.69856C71.9138 7.69463 72.3802 9.06422 72.3802 10.7824V18.6763H68.939Z" fill="#1D1D1B"/>
<path d="M79.4015 18.9875C78.1535 18.9875 77.0569 18.6763 76.1493 18.0662C75.2417 17.4561 74.5862 16.6219 74.1954 15.6009L74.145 15.4515L76.9686 13.9948L77.0443 14.194C77.2585 14.7543 77.5863 15.2025 78.0149 15.5387C78.4435 15.8748 78.9225 16.0367 79.4645 16.0367C79.9057 16.0367 80.2838 15.9371 80.599 15.7379C80.8889 15.5511 81.0276 15.2772 81.0276 14.8912C81.0276 14.5924 80.9267 14.3683 80.7376 14.194C80.5233 14.0072 80.1704 13.8329 79.6788 13.6835L78.1157 13.1855C75.8341 12.4633 74.6744 11.156 74.6744 9.30079C74.6744 8.67824 74.8005 8.1055 75.0526 7.59502C75.3047 7.08453 75.6451 6.64875 76.061 6.28768C76.4896 5.93906 76.9812 5.66514 77.5359 5.46592C78.0905 5.27916 78.6956 5.17955 79.3258 5.17955C80.4099 5.17955 81.4057 5.45347 82.2755 5.98886C83.1453 6.52425 83.7881 7.2713 84.2167 8.18021L84.2924 8.34207L81.5066 9.82372L81.4183 9.64941C81.1788 9.16383 80.8889 8.77785 80.5233 8.47903C80.1704 8.19266 79.7922 8.0557 79.3384 8.0557C78.9351 8.0557 78.5947 8.14286 78.33 8.34207C78.0779 8.51638 77.9644 8.75295 77.9644 9.05177C77.9644 9.5747 78.393 9.97313 79.288 10.2595L80.8259 10.7575C82.0738 11.1684 82.9814 11.7038 83.536 12.3388C84.0907 12.9862 84.3806 13.7706 84.3806 14.6671C84.3806 15.3519 84.2419 15.9744 83.9772 16.4974C83.7125 17.0203 83.347 17.481 82.8806 17.8545C82.4268 18.228 81.8973 18.502 81.2923 18.7012C80.6998 18.8879 80.0695 18.9875 79.4267 18.9875" fill="#1D1D1B"/>
<path d="M131.071 4.10878C130.516 4.10878 130.025 3.90957 129.621 3.51114C129.218 3.11271 129.016 2.62713 129.016 2.07929C129.016 1.53145 129.218 1.02097 129.621 0.610092C130.025 0.211664 130.516 0.0124509 131.071 0.0124509C131.663 0.0124509 132.168 0.224115 132.571 0.634993C132.962 1.04587 133.164 1.53145 133.164 2.07929C133.164 2.62713 132.962 3.11271 132.571 3.51114C132.168 3.90957 131.663 4.12123 131.071 4.12123" fill="#1D1D1B"/>
<path d="M129.369 5.49083V18.6763H132.811V5.49083H129.369Z" fill="#1D1D1B"/>
<path d="M135.47 0V18.6763H138.912V0H135.47Z" fill="#1D1D1B"/>
<path d="M141.559 0V18.6763H145V0H141.559Z" fill="#1D1D1B"/>
<path d="M124.113 0L120.646 12.3512L117.142 0H114.268L110.751 12.3512L107.297 0H103.591L109.251 18.6763H112.138L115.655 6.21297L119.184 18.6763H122.083L127.756 0H124.113Z" fill="#1D1D1B"/>
</svg>
