<svg width="222" height="45" viewBox="0 0 222 45" fill="none" xmlns="http://www.w3.org/2000/svg">
<path d="M73.7626 41.3266C73.6052 41.1858 73.3733 41.0616 73.0834 40.9539C72.7935 40.8462 72.5368 40.7634 72.3049 40.7137C72.0813 40.664 71.7831 40.6143 71.4187 40.5563C71.1039 40.5067 70.8389 40.457 70.6318 40.399C70.4248 40.3493 70.2177 40.2747 70.0107 40.1836C69.8036 40.0925 69.6545 39.9766 69.5551 39.8358C69.4557 39.695 69.4061 39.5293 69.4061 39.3388C69.4061 38.9247 69.5965 38.61 69.9775 38.3947C70.3585 38.1793 70.8141 38.0716 71.3441 38.0716C71.7831 38.0716 72.1889 38.1628 72.5699 38.3201C72.9509 38.4775 73.2325 38.7094 73.423 39.0241L74.1187 38.5934C73.8205 38.0799 73.4313 37.7321 72.9675 37.5416C72.5037 37.3511 71.957 37.26 71.3193 37.26C70.9797 37.26 70.6484 37.3014 70.3337 37.3676C70.0107 37.4422 69.7125 37.5581 69.4226 37.7072C69.141 37.8646 68.9091 38.0799 68.7352 38.3532C68.5613 38.6348 68.4784 38.9496 68.4867 39.314C68.4867 39.6039 68.5447 39.8606 68.6524 40.076C68.76 40.2996 68.9008 40.4735 69.0582 40.6143C69.2156 40.7468 69.4309 40.8711 69.7042 40.9705C69.9693 41.0699 70.2177 41.1527 70.4496 41.2024C70.6815 41.2521 70.9631 41.3018 71.3027 41.3515C71.6257 41.4011 71.899 41.4508 72.1227 41.5088C72.3463 41.5668 72.5616 41.6413 72.7852 41.7407C73.0006 41.8401 73.1662 41.9726 73.2739 42.13C73.3816 42.2956 73.4396 42.4779 73.4396 42.7015C73.4396 42.9582 73.3733 43.1819 73.2408 43.3723C73.1083 43.5628 72.9343 43.7036 72.7273 43.803C72.5119 43.9024 72.2883 43.9687 72.0647 44.0101C71.8328 44.0515 71.6009 44.0763 71.3524 44.0763C70.872 44.0763 70.4165 43.9604 69.9775 43.7368C69.5386 43.5131 69.2073 43.1901 68.9837 42.776L68.2217 43.2233C68.4867 43.803 68.9008 44.2337 69.4557 44.5153C70.0107 44.7969 70.6401 44.9294 71.3441 44.9294C71.7168 44.9294 72.073 44.888 72.4125 44.8135C72.7521 44.7389 73.0669 44.6147 73.365 44.4573C73.6632 44.3 73.9034 44.0681 74.0856 43.7699C74.2678 43.4717 74.3506 43.1322 74.3506 42.7346C74.3506 42.4116 74.2926 42.13 74.1767 41.8815C74.0607 41.6413 73.9199 41.4508 73.7626 41.31" fill="#BFA66B"/>
<path d="M81.432 38.3367L83.1796 42.3205H79.6762L81.4237 38.3367H81.432ZM80.9185 37.4091L77.6056 44.7969H78.6077L79.3283 43.1736H83.5523L84.2812 44.7969H85.275L81.9621 37.4091H80.9185Z" fill="#BFA66B"/>
<path d="M81.7053 35.8685C81.7053 35.8685 81.5728 35.8189 81.4237 35.736C81.2664 35.6532 81.167 35.6118 81.1256 35.5952C80.8274 35.4876 80.5624 35.5124 80.3222 35.6532C80.082 35.794 79.9246 36.0259 79.8501 36.3406H79.8418L80.4133 36.614C80.5375 36.2827 80.7529 36.175 81.0427 36.2992C81.0676 36.2992 81.167 36.3572 81.3244 36.44C81.49 36.5311 81.5894 36.5808 81.6308 36.5891C81.8958 36.6968 82.1526 36.6802 82.4011 36.5477C82.6495 36.4152 82.8152 36.175 82.898 35.8189L82.3182 35.5787C82.2023 35.8768 82.0035 35.9679 81.7053 35.8603" fill="#BFA66B"/>
<path d="M94.2697 43.1984C93.781 43.7865 93.0853 44.0763 92.1825 44.0763C91.2797 44.0763 90.5675 43.7865 90.0705 43.2067C89.5818 42.6269 89.3334 41.9312 89.3334 41.1195C89.3334 40.3079 89.5818 39.5542 90.0788 38.9827C90.5757 38.4112 91.2797 38.1213 92.1825 38.1213C92.7954 38.1213 93.3172 38.2787 93.7561 38.5769C94.1951 38.875 94.5181 39.2395 94.7086 39.6784C94.9074 40.1174 94.9985 40.5978 94.9902 41.1195C94.9902 41.9229 94.75 42.6104 94.2614 43.1984M92.1742 37.2765C91.0313 37.2765 90.1202 37.641 89.4328 38.3698C88.7453 39.0987 88.4058 40.018 88.4058 41.1113C88.4058 41.6082 88.4803 42.0803 88.6459 42.5275C88.8033 42.9748 89.0352 43.3806 89.3334 43.745C89.6315 44.1095 90.0291 44.3994 90.5178 44.6147C91.0064 44.83 91.553 44.9377 92.1659 44.9377C92.7788 44.9377 93.3255 44.83 93.8141 44.6147C94.3028 44.3994 94.6921 44.1095 94.9902 43.745C95.2884 43.3806 95.5203 42.9748 95.6777 42.5275C95.835 42.0803 95.9178 41.6082 95.9178 41.1113C95.9178 40.0594 95.6031 39.1649 94.9405 38.4112C94.2779 37.6575 93.3669 37.2765 92.1825 37.2683" fill="#BFA66B"/>
<path d="M110.412 40.6971C110.304 40.9456 110.114 41.1444 109.857 41.31C109.6 41.4757 109.302 41.5502 108.954 41.5502H106.503V38.2539H108.954C109.302 38.2539 109.6 38.3367 109.857 38.494C110.114 38.6597 110.296 38.8585 110.412 39.1069C110.528 39.3554 110.578 39.6204 110.578 39.902C110.578 40.1836 110.52 40.4487 110.412 40.6889M111.033 38.3864C110.843 38.0882 110.561 37.848 110.197 37.6658C109.832 37.4836 109.418 37.3925 108.954 37.3925H105.6V44.7803H106.511V42.395H108.963C109.426 42.395 109.84 42.3039 110.205 42.1134C110.569 41.9229 110.851 41.691 111.041 41.3929C111.232 41.103 111.373 40.78 111.456 40.4238C111.547 40.0677 111.547 39.7115 111.456 39.3554C111.364 38.9993 111.232 38.6763 111.041 38.3781" fill="#BFA66B"/>
<path d="M118.106 38.3367L119.862 42.3205H116.359L118.106 38.3367ZM117.593 37.4091L114.28 44.7969H115.282L116.003 43.1736H120.227L120.955 44.7969H121.949L118.636 37.4091H117.593Z" fill="#BFA66B"/>
<path d="M130.579 37.4091V41.8401C130.579 42.5358 130.381 43.0825 129.983 43.4883C129.586 43.8858 129.089 44.0929 128.492 44.0929C127.896 44.0929 127.391 43.8941 126.985 43.5049C126.579 43.1073 126.372 42.5607 126.372 41.8567V37.4256H125.461V41.8567C125.461 42.8423 125.751 43.6043 126.339 44.1343C126.927 44.6727 127.639 44.9377 128.484 44.9377C129.329 44.9377 130.049 44.6727 130.621 44.1343C131.192 43.596 131.482 42.834 131.482 41.8567V37.4256H131.474L130.579 37.4173V37.4091Z" fill="#BFA66B"/>
<path d="M136.112 37.4091V44.7969H141.048V43.9438H137.031V37.4091H136.112Z" fill="#BFA66B"/>
<path d="M150.093 43.1984C149.604 43.7865 148.908 44.0763 148.006 44.0763C147.103 44.0763 146.39 43.7865 145.894 43.2067C145.405 42.6269 145.156 41.9312 145.156 41.1195C145.156 40.3079 145.405 39.5542 145.902 38.9827C146.399 38.4112 147.103 38.1213 148.006 38.1213C148.618 38.1213 149.14 38.2787 149.579 38.5769C150.018 38.875 150.341 39.2395 150.532 39.6784C150.73 40.1174 150.822 40.5978 150.813 41.1195C150.813 41.9229 150.573 42.6104 150.084 43.1984M147.997 37.2765C146.854 37.2765 145.943 37.641 145.256 38.3698C144.568 39.0987 144.229 40.018 144.229 41.1113C144.229 41.6082 144.312 42.0803 144.469 42.5275C144.626 42.9748 144.858 43.3806 145.156 43.745C145.455 44.1095 145.852 44.3994 146.341 44.6147C146.829 44.83 147.376 44.9377 147.989 44.9377C148.602 44.9377 149.148 44.83 149.637 44.6147C150.126 44.3994 150.515 44.1095 150.813 43.745C151.111 43.3806 151.343 42.9748 151.501 42.5275C151.658 42.0803 151.741 41.6082 151.741 41.1113C151.741 40.0594 151.426 39.1649 150.764 38.4112C150.109 37.6575 149.19 37.2765 148.006 37.2683" fill="#BFA66B"/>
<path d="M8.72959 18.0615C8.16639 18.6578 7.25533 18.8483 5.78108 18.8483H3.95896V10.9056H4.54701C6.65901 10.9056 7.91792 11.2865 8.61364 11.8829C9.28451 12.4792 9.68206 13.4565 9.68206 14.9556C9.68206 16.4547 9.3342 17.432 8.72131 18.0532M3.96724 2.04345C4.18258 2.04345 4.42277 2.0186 4.61327 2.0186C6.0047 2.0186 6.86606 2.18425 7.28846 2.42443C7.76884 2.6729 8.1167 2.99591 8.35689 3.43488C8.57223 3.87384 8.72959 4.553 8.72959 5.50547C8.72959 6.86377 8.38173 7.70857 7.81853 8.19723C7.25533 8.68589 6.07924 9.04203 4.06663 9.04203H3.95896V2.04345H3.96724ZM12.1336 11.0712C11.4876 10.4997 10.6842 10.0608 9.72347 9.76259C10.3695 9.5224 10.8996 9.19111 11.3551 8.81012C12.3987 7.91563 12.9122 6.73953 12.9122 5.29841C12.9122 1.62933 9.69863 0.113659 4.47247 0.113659H0V20.4551C3.8016 20.0493 7.82682 19.6683 12.0508 19.3039C12.291 19.0968 12.5146 18.8649 12.7217 18.6081C13.5251 17.5977 13.9309 16.405 13.9309 15.0467C13.9309 13.4731 13.3429 12.1396 12.1336 11.0795" fill="#BFA66B"/>
<path d="M25.7664 18.2603C27.075 18.1692 28.3919 18.0863 29.7336 18.0035V0.113659H25.7664V18.2603Z" fill="#BFA66B"/>
<path d="M51.4251 0.113659C48.3689 0.113659 46.4722 1.06613 44.4596 2.91309C42.3973 4.79318 41.3786 7.3193 41.3786 10.3672C41.3786 13.1087 42.124 15.3863 43.6562 17.225C44.9234 17.1587 46.1989 17.1007 47.4827 17.0428C47.4496 17.0014 47.4164 16.9682 47.3833 16.9185C46.3149 15.5602 45.7185 13.44 45.7185 10.4749C45.7185 7.50979 46.3066 5.44749 47.3833 4.0809C48.4849 2.66462 49.4208 2.0186 51.4251 2.0186C53.4294 2.0186 54.7712 2.7226 55.8479 4.13888C56.9163 5.52203 57.2144 7.56777 57.2144 10.4997C57.2144 13.4317 56.9163 15.3449 56.0052 16.6783C57.2724 16.6287 58.5479 16.5872 59.8234 16.5375C60.9912 14.8479 61.5792 12.8188 61.5792 10.4666C61.5792 7.31102 60.5357 4.75177 58.4485 2.85511C56.4111 1.033 54.4813 0.113659 51.4251 0.113659Z" fill="#BFA66B"/>
<path d="M159.162 11.858L161.547 5.84504L164.015 11.858H159.162ZM161.92 0.113659L155.327 16.3139C156.048 16.3388 156.76 16.3553 157.481 16.3802L158.491 13.705H164.728L165.929 16.6783C167.386 16.7363 168.844 16.7943 170.277 16.8523L163.262 0.113659H161.92Z" fill="#BFA66B"/>
<path d="M191.272 8.56993C190.949 8.89295 190.577 9.19939 190.171 9.33191C189.906 9.41473 189.608 9.5224 189.285 9.60523C188.987 9.68805 188.697 9.7129 188.399 9.73774H186.767V2.12627L187.355 2.15112C189.633 2.15112 190.842 2.44928 191.322 2.99591C191.861 3.69991 192.184 4.56956 192.184 5.82019C192.184 6.55732 192.076 7.09568 191.919 7.53464C191.761 7.99845 191.546 8.32146 191.272 8.56993ZM192.134 10.8807C193.26 10.4997 194.196 9.92824 194.892 9.24909C195.935 8.23864 196.449 6.98801 196.449 5.54688C196.449 4.32109 196.043 3.2361 195.24 2.34161C194.436 1.44712 193.418 0.925329 192.217 0.57747C191.016 0.229612 189.459 0.113659 187.637 0.113659H182.841V17.4569C184.166 17.5314 185.475 17.5977 186.775 17.6722V11.593L186.991 11.6178C190.337 11.6178 192.589 15.32 193.79 18.1029C194.958 18.1775 196.118 18.252 197.261 18.3348C195.745 14.9308 194.759 13.5808 194.759 13.5808C194.014 12.5703 193.153 11.593 192.134 10.889" fill="#BFA66B"/>
<path d="M213.535 5.58001V1.98547H222V0.0805295H209.543V19.2624C213.9 19.6351 218.041 20.0244 221.942 20.4385V19.0057H213.535V10.9304H219.076V9.05031H213.535V5.57172V5.58001Z" fill="#BFA66B"/>
<path d="M74.5742 10.0111C75.3279 10.6074 76.3964 11.2865 77.8126 12.1065C79.3946 13.001 80.3553 13.7381 80.8357 14.3344C81.2084 14.8065 81.3906 15.3366 81.4072 15.9495C82.4756 15.9329 83.5523 15.9081 84.629 15.8915C84.6456 15.8004 84.6621 15.7093 84.6704 15.6182C84.7781 14.5001 84.6456 13.4979 84.2397 12.5455C83.867 11.651 83.279 10.889 82.5253 10.3175C81.8296 9.804 80.728 9.09172 79.2041 8.17238C77.647 7.24476 76.6283 6.48278 76.1479 5.88645C75.6675 5.33982 75.477 4.74349 75.5598 4.06434C75.6095 3.5177 75.858 3.0042 76.3384 2.56523C76.7442 2.18425 77.382 1.9689 78.3758 2.07657C79.3697 2.18425 80.198 2.62321 80.8688 3.43488C81.0593 3.62537 81.1918 3.84071 81.6971 4.66067L83.2541 3.35206C82.2603 1.9689 81.5397 1.25662 80.7612 0.875635C80.0406 0.519494 79.2372 0.279306 78.4007 0.196482C76.8767 0.0308355 75.5101 0.386976 74.3837 1.25662C73.2325 2.15112 72.5865 3.3769 72.4291 4.87601C72.3214 5.82848 72.454 6.78095 72.8598 7.70857C73.2325 8.60306 73.7957 9.39817 74.5742 10.0193" fill="#BFA66B"/>
<path d="M72.6279 13.2246L71.2861 14.6906C71.6092 15.2207 71.9819 15.7093 72.396 16.1483C73.2988 16.1234 74.2015 16.0986 75.1126 16.082C74.3589 15.552 73.6218 14.6823 72.6279 13.2246Z" fill="#BFA66B"/>
<path d="M131.789 13.4151C131.706 13.0341 131.681 12.4875 131.656 11.7586C131.631 10.9967 131.631 9.69633 131.631 8.66104V0.113659H127.697L127.565 10.5328C127.457 12.1645 127.78 13.9617 128.343 14.9888C128.501 15.2869 128.691 15.5602 128.898 15.8253C130.629 15.8418 132.352 15.8667 134.058 15.8915C133.685 15.759 133.362 15.5768 133.081 15.3697C132.335 14.7983 131.954 14.1771 131.797 13.4151" fill="#BFA66B"/>
<path d="M142.208 8.79356C142.208 10.2595 142.051 11.7338 141.943 12.4129C141.86 12.9844 141.57 13.5808 141.139 14.1771C140.767 14.7486 140.121 15.2372 139.21 15.6431C138.928 15.7756 138.622 15.8832 138.315 15.9661C139.591 15.9909 140.866 16.0158 142.133 16.0406C142.241 15.9247 142.357 15.817 142.448 15.6927C143.061 14.9059 143.599 14.0032 143.765 13.0507C143.897 12.2307 144.055 10.5743 144.055 8.89294V0.113659H142.208V8.79356Z" fill="#BFA66B"/>
<path d="M107.637 18.0201L109.799 15.7839H107.728C107.372 15.7839 107.041 15.6431 106.793 15.3863L105.012 13.5476C104.763 13.2909 104.432 13.1501 104.076 13.1501H102.593C102.237 13.1501 101.906 13.2909 101.658 13.5476L100.995 14.2351C100.862 14.3759 100.631 14.3179 100.581 14.1274C100.324 13.0838 100.192 11.8746 100.192 10.4997C100.192 7.692 100.746 5.57172 101.831 4.18857C102.9 2.8137 103.761 2.1594 105.774 2.1594C107.786 2.1594 108.971 2.76401 110.122 4.24655C111.058 5.46405 111.439 7.28617 111.439 10.5246C111.439 12.9016 111.24 14.4752 110.793 15.6265L110.743 15.7507H110.876C112.151 15.7507 113.418 15.7507 114.694 15.7507H114.752L114.777 15.701C115.564 14.2019 115.961 12.4544 115.961 10.4914C115.961 7.26961 114.909 4.70208 112.822 2.8634C110.602 0.850787 108.623 0.0639648 105.766 0.0639648C102.502 0.0639648 100.606 1.19036 98.767 2.88824C96.7047 4.76834 95.6528 7.29445 95.6528 10.4086C95.6528 12.4212 96.0752 14.2185 96.92 15.759L96.9449 15.8087H97.0028C98.328 15.8004 99.6615 15.7839 101.003 15.7756H101.55C101.906 15.7756 102.237 15.9164 102.486 16.1731L104.266 18.0118C104.515 18.2686 104.846 18.4094 105.202 18.4094H106.685C107.041 18.4094 107.372 18.2686 107.621 18.0118" fill="#BFA66B"/>
</svg>
