<svg width="158" height="32" viewBox="0 0 158 32" fill="none" xmlns="http://www.w3.org/2000/svg">
<g id="vetores">
<path id="Vector" d="M3.23951e-05 2.76583e-08L0.316406 0L0.316409 31.8926L3.51833e-05 31.8926L3.23951e-05 2.76583e-08Z" fill="#6D5926"/>
<path id="Vector_2" d="M2.74832 2.76583e-08L3.0647 0L3.0647 31.8926L2.74833 31.8926L2.74832 2.76583e-08Z" fill="#6D5926"/>
<path id="Vector_3" d="M5.49784 2.76583e-08L5.81421 0L5.81421 31.8926L5.49784 31.8926L5.49784 2.76583e-08Z" fill="#6D5926"/>
<path id="Vector_4" d="M8.24588 2.76583e-08L8.56226 0L8.56226 31.8926L8.24588 31.8926L8.24588 2.76583e-08Z" fill="#6D5926"/>
<path id="Vector_5" d="M10.9954 2.76583e-08L11.3118 0L11.3118 31.8926L10.9954 31.8926L10.9954 2.76583e-08Z" fill="#6D5926"/>
<path id="Vector_6" d="M13.7437 2.76568e-08L14.0601 0L14.0601 31.8926L13.7437 31.8926L13.7437 2.76568e-08Z" fill="#6D5926"/>
<path id="Vector_7" d="M16.493 2.76568e-08L16.8093 0L16.8093 31.8926L16.493 31.8926L16.493 2.76568e-08Z" fill="#6D5926"/>
<path id="Vector_8" d="M19.2413 2.76576e-08L19.5576 0L19.5576 31.8926L19.2413 31.8926L19.2413 2.76576e-08Z" fill="#6D5926"/>
<path id="Vector_9" d="M21.9908 2.76576e-08L22.3071 0L22.3071 31.8926L21.9908 31.8926L21.9908 2.76576e-08Z" fill="#6D5926"/>
<path id="Vector_10" d="M24.7391 2.76576e-08L25.0554 0L25.0554 31.8926L24.7391 31.8926L24.7391 2.76576e-08Z" fill="#6D5926"/>
<path id="Vector_11" d="M27.4883 2.76576e-08L27.8047 0L27.8047 31.8926L27.4883 31.8926L27.4883 2.76576e-08Z" fill="#6D5926"/>
<path id="Vector_12" d="M30.2364 2.76568e-08L30.5527 0L30.5527 31.8926L30.2364 31.8926L30.2364 2.76568e-08Z" fill="#6D5926"/>
<path id="Vector_13" d="M32.9861 2.76568e-08L33.3025 0L33.3025 31.8926L32.9861 31.8926L32.9861 2.76568e-08Z" fill="#6D5926"/>
<path id="Vector_14" d="M35.7342 2.76568e-08L36.0505 0L36.0505 31.8926L35.7342 31.8926L35.7342 2.76568e-08Z" fill="#6D5926"/>
<path id="Vector_15" d="M41.3826 2.76576e-08L41.699 0L41.699 31.8926L41.3826 31.8926L41.3826 2.76576e-08Z" fill="#6D5926"/>
<path id="Vector_16" d="M47.0296 2.76568e-08L47.3459 0L47.346 31.8926L47.0296 31.8926L47.0296 2.76568e-08Z" fill="#6D5926"/>
<path id="Vector_17" d="M52.678 2.76576e-08L52.9944 0L52.9944 31.8926L52.678 31.8926L52.678 2.76576e-08Z" fill="#6D5926"/>
<path id="Vector_18" d="M58.325 2.76568e-08L58.6414 0L58.6414 31.8926L58.325 31.8926L58.325 2.76568e-08Z" fill="#6D5926"/>
<path id="Vector_19" d="M63.9734 2.76576e-08L64.2898 0L64.2898 31.8926L63.9734 31.8926L63.9734 2.76576e-08Z" fill="#6D5926"/>
<path id="Vector_20" d="M69.6204 2.76568e-08L69.9368 0L69.9368 31.8926L69.6204 31.8926L69.6204 2.76568e-08Z" fill="#6D5926"/>
<path id="Vector_21" d="M80.7664 2.76576e-08L81.0828 0L81.0828 31.8926L80.7664 31.8926L80.7664 2.76576e-08Z" fill="#6D5926"/>
<path id="Vector_22" d="M91.9112 2.76572e-08L92.2275 0L92.2275 31.8926L91.9112 31.8926L91.9112 2.76572e-08Z" fill="#6D5926"/>
<path id="Vector_23" d="M103.056 2.76576e-08L103.372 0L103.372 31.8926L103.056 31.8926L103.056 2.76576e-08Z" fill="#6D5926"/>
<path id="Vector_24" d="M114.202 2.76576e-08L114.518 0L114.518 31.8926L114.202 31.8926L114.202 2.76576e-08Z" fill="#6D5926"/>
<path id="Vector_25" d="M135.943 2.76574e-08L136.259 0L136.259 31.8926L135.943 31.8926L135.943 2.76574e-08Z" fill="#6D5926"/>
<path id="Vector_26" d="M157.683 2.76574e-08L158 0L158 31.8926L157.683 31.8926L157.683 2.76574e-08Z" fill="#6D5926"/>
</g>
</svg>
