<svg width="33" height="158" viewBox="0 0 33 158" fill="none" xmlns="http://www.w3.org/2000/svg">
<g id="vetores">
<path id="Vector" d="M32.8516 0.000276536L32.8516 0.31665L0.959003 0.31665L0.959003 0.000276155L32.8516 0.000276536Z" fill="#6D5926"/>
<path id="Vector_2" d="M32.8516 2.74857L32.8516 3.06494L0.959003 3.06494L0.959003 2.74857L32.8516 2.74857Z" fill="#6D5926"/>
<path id="Vector_3" d="M32.8516 5.49808L32.8516 5.81445L0.959003 5.81445L0.959003 5.49808L32.8516 5.49808Z" fill="#6D5926"/>
<path id="Vector_4" d="M32.8516 8.24613L32.8516 8.5625L0.959003 8.5625L0.959003 8.24613L32.8516 8.24613Z" fill="#6D5926"/>
<path id="Vector_5" d="M32.8516 10.9956L32.8516 11.312L0.959003 11.312L0.959003 10.9956L32.8516 10.9956Z" fill="#6D5926"/>
<path id="Vector_6" d="M32.8516 13.7439L32.8516 14.0603L0.959003 14.0603L0.959003 13.7439L32.8516 13.7439Z" fill="#6D5926"/>
<path id="Vector_7" d="M32.8516 16.4932L32.8516 16.8096L0.959003 16.8096L0.959003 16.4932L32.8516 16.4932Z" fill="#6D5926"/>
<path id="Vector_8" d="M32.8516 19.2415L32.8516 19.5579L0.959003 19.5579L0.959003 19.2415L32.8516 19.2415Z" fill="#6D5926"/>
<path id="Vector_9" d="M32.8516 21.991L32.8516 22.3074L0.959003 22.3074L0.959003 21.991L32.8516 21.991Z" fill="#6D5926"/>
<path id="Vector_10" d="M32.8516 24.7393L32.8516 25.0557L0.959003 25.0557L0.959003 24.7393L32.8516 24.7393Z" fill="#6D5926"/>
<path id="Vector_11" d="M32.8516 27.4886L32.8516 27.8049L0.959003 27.8049L0.959003 27.4886L32.8516 27.4886Z" fill="#6D5926"/>
<path id="Vector_12" d="M32.8516 30.2366L32.8516 30.553L0.959003 30.553L0.959003 30.2366L32.8516 30.2366Z" fill="#6D5926"/>
<path id="Vector_13" d="M32.8516 32.9864L32.8516 33.3027L0.959003 33.3027L0.959003 32.9864L32.8516 32.9864Z" fill="#6D5926"/>
<path id="Vector_14" d="M32.8516 35.7344L32.8516 36.0508L0.959003 36.0508L0.959003 35.7344L32.8516 35.7344Z" fill="#6D5926"/>
<path id="Vector_15" d="M32.8516 41.3829L32.8516 41.6992L0.959003 41.6992L0.959003 41.3829L32.8516 41.3829Z" fill="#6D5926"/>
<path id="Vector_16" d="M32.8516 47.0298L32.8516 47.3462L0.959003 47.3462L0.959003 47.0298L32.8516 47.0298Z" fill="#6D5926"/>
<path id="Vector_17" d="M32.8516 52.6783L32.8516 52.9946L0.959003 52.9946L0.959003 52.6783L32.8516 52.6783Z" fill="#6D5926"/>
<path id="Vector_18" d="M32.8516 58.3252L32.8516 58.6416L0.959003 58.6416L0.959003 58.3252L32.8516 58.3252Z" fill="#6D5926"/>
<path id="Vector_19" d="M32.8516 63.9737L32.8516 64.29L0.959003 64.29L0.959003 63.9737L32.8516 63.9737Z" fill="#6D5926"/>
<path id="Vector_20" d="M32.8516 69.6207L32.8516 69.937L0.959003 69.937L0.959003 69.6207L32.8516 69.6207Z" fill="#6D5926"/>
<path id="Vector_21" d="M32.8516 80.7666L32.8516 81.083L0.959003 81.083L0.959003 80.7666L32.8516 80.7666Z" fill="#6D5926"/>
<path id="Vector_22" d="M32.8516 91.9112L32.8516 92.2275L0.959003 92.2275L0.959003 91.9112L32.8516 91.9112Z" fill="#6D5926"/>
<path id="Vector_23" d="M32.8516 103.056L32.8516 103.372L0.959003 103.372L0.959003 103.056L32.8516 103.056Z" fill="#6D5926"/>
<path id="Vector_24" d="M32.8516 114.202L32.8516 114.518L0.959003 114.518L0.959003 114.202L32.8516 114.202Z" fill="#6D5926"/>
<path id="Vector_25" d="M32.8516 135.943L32.8516 136.259L0.959003 136.259L0.959003 135.943L32.8516 135.943Z" fill="#6D5926"/>
<path id="Vector_26" d="M32.8516 157.684L32.8516 158L0.959003 158L0.959003 157.684L32.8516 157.684Z" fill="#6D5926"/>
</g>
</svg>
