<svg width="514" height="99" viewBox="0 0 514 99" fill="none" xmlns="http://www.w3.org/2000/svg">
<path d="M-92.784 0H-94V98.6H-92.784V0Z" fill="#B29E6B"/>
<path d="M-82.208 0H-83.424V98.6H-82.208V0Z" fill="#B29E6B"/>
<path d="M-71.6267 0H-72.8427V98.6H-71.6267V0Z" fill="#B29E6B"/>
<path d="M-61.0507 0H-62.2667V98.6H-61.0507V0Z" fill="#B29E6B"/>
<path d="M-50.4747 0H-51.6907V98.6H-50.4747V0Z" fill="#B29E6B"/>
<path d="M-39.8934 0H-41.1094V98.6H-39.8934V0Z" fill="#B29E6B"/>
<path d="M-29.3174 0H-30.5334V98.6H-29.3174V0Z" fill="#B29E6B"/>
<path d="M-18.7414 0H-19.9574V98.6H-18.7414V0Z" fill="#B29E6B"/>
<path d="M-8.16003 0H-9.37603V98.6H-8.16003V0Z" fill="#B29E6B"/>
<path d="M2.41597 0H1.19997V98.6H2.41597V0Z" fill="#B29E6B"/>
<path d="M12.992 0H11.776V98.6H12.992V0Z" fill="#B29E6B"/>
<path d="M23.5733 0H22.3573V98.6H23.5733V0Z" fill="#B29E6B"/>
<path d="M34.1493 0H32.9333V98.6H34.1493V0Z" fill="#B29E6B"/>
<path d="M44.7253 0H43.5093V98.6H44.7253V0Z" fill="#B29E6B"/>
<path d="M66.4586 0H65.2426V98.6H66.4586V0Z" fill="#B29E6B"/>
<path d="M88.192 0H86.976V98.6H88.192V0Z" fill="#B29E6B"/>
<path d="M109.925 0H108.709V98.6H109.925V0Z" fill="#B29E6B"/>
<path d="M131.659 0H130.443V98.6H131.659V0Z" fill="#B29E6B"/>
<path d="M153.392 0H152.176V98.6H153.392V0Z" fill="#B29E6B"/>
<path d="M175.125 0H173.909V98.6H175.125V0Z" fill="#B29E6B"/>
<path d="M218.011 0H216.795V98.6H218.011V0Z" fill="#B29E6B"/>
<path d="M260.901 0H259.685V98.6H260.901V0Z" fill="#B29E6B"/>
<path d="M303.787 0H302.571V98.6H303.787V0Z" fill="#B29E6B"/>
<path d="M346.677 0H345.461V98.6H346.677V0Z" fill="#B29E6B"/>
<path d="M430.336 0H429.12V98.6H430.336V0Z" fill="#B29E6B"/>
<path d="M514 0H512.784V98.6H514V0Z" fill="#B29E6B"/>
</svg>
