<svg width="289" height="10" viewBox="0 0 289 10" fill="none" xmlns="http://www.w3.org/2000/svg">
<path d="M0.603174 9.16504H0V-6.58035e-05H0.603174V9.16504Z" fill="#B29E6B"/>
<path d="M5.84371 9.16504H5.24054V-6.58035e-05H5.84371V9.16504Z" fill="#B29E6B"/>
<path d="M11.0843 9.16504H10.4811V-6.58035e-05H11.0843V9.16504Z" fill="#B29E6B"/>
<path d="M16.3327 9.16504H15.7296V-6.58035e-05H16.3327V9.16504Z" fill="#B29E6B"/>
<path d="M21.5733 9.16504H20.9701V-6.58035e-05H21.5733V9.16504Z" fill="#B29E6B"/>
<path d="M26.8138 9.16504H26.2106V-6.58035e-05H26.8138V9.16504Z" fill="#B29E6B"/>
<path d="M32.0544 9.16504H31.4512V-6.58035e-05H32.0544V9.16504Z" fill="#B29E6B"/>
<path d="M37.3028 9.16504H36.6996V-6.58035e-05H37.3028V9.16504Z" fill="#B29E6B"/>
<path d="M42.5433 9.16504H41.9401V-6.58035e-05H42.5433V9.16504Z" fill="#B29E6B"/>
<path d="M47.7838 9.16504H47.1807V-6.58035e-05H47.7838V9.16504Z" fill="#B29E6B"/>
<path d="M53.0244 9.16504H52.4213V-6.58035e-05H53.0244V9.16504Z" fill="#B29E6B"/>
<path d="M63.7954 9.16504H63.1922V-6.58035e-05H63.7954V9.16504Z" fill="#B29E6B"/>
<path d="M74.5663 9.16504H73.9631V-6.58035e-05H74.5663V9.16504Z" fill="#B29E6B"/>
<path d="M85.3373 9.16504H84.7341V-6.58035e-05H85.3373V9.16504Z" fill="#B29E6B"/>
<path d="M96.1082 9.16504H95.5051V-6.58035e-05H96.1082V9.16504Z" fill="#B29E6B"/>
<path d="M106.879 9.16504H106.276V-6.58035e-05H106.879V9.16504Z" fill="#B29E6B"/>
<path d="M117.65 9.16504H117.047V-6.58035e-05H117.65V9.16504Z" fill="#B29E6B"/>
<path d="M138.902 9.16504H138.299V-6.58035e-05H138.902V9.16504Z" fill="#B29E6B"/>
<path d="M224.78 9.16504H224.177V-6.58035e-05H224.78V9.16504Z" fill="#B29E6B"/>
<path d="M160.154 9.16504H159.551V-6.58035e-05H160.154V9.16504Z" fill="#B29E6B"/>
<path d="M246.032 9.16504H245.429V-6.58035e-05H246.032V9.16504Z" fill="#B29E6B"/>
<path d="M181.414 9.16504H180.811V-6.58035e-05H181.414V9.16504Z" fill="#B29E6B"/>
<path d="M267.284 9.16504H266.681V-6.58035e-05H267.284V9.16504Z" fill="#B29E6B"/>
<path d="M202.666 9.16504H202.063V-6.58035e-05H202.666V9.16504Z" fill="#B29E6B"/>
<path d="M288.544 9.16504H287.941V-6.58035e-05H288.544V9.16504Z" fill="#B29E6B"/>
</svg>
