<svg width="104" height="28" viewBox="0 0 104 28" fill="none" xmlns="http://www.w3.org/2000/svg">
<path d="M19.4369 0.337503H13.8835V5.89089H19.4369V0.337503Z" fill="#1F9FDA"/>
<path d="M19.4369 7.27924H13.8835V12.8326H19.4369V7.27924Z" fill="#16427F"/>
<path d="M19.4369 14.221H13.8835V19.7744H19.4369V14.221Z" fill="#00A994"/>
<path d="M19.4369 21.1627H13.8835V26.7161H19.4369V21.1627Z" fill="#5B2679"/>
<path d="M12.4951 14.221H6.94174V19.7744H12.4951V14.221Z" fill="#7CB729"/>
<path d="M12.4951 21.1627H6.94174V26.7161H12.4951V21.1627Z" fill="#924392"/>
<path d="M5.55339 21.1627H0V26.7161H5.55339V21.1627Z" fill="#E50A6C"/>
<path d="M31.6066 3.87345C31.2812 3.75775 30.9413 3.69991 30.5943 3.70714C30.2255 3.69268 29.8567 3.79391 29.553 3.99638C29.2782 4.19161 29.0613 4.45193 28.9167 4.75563C28.7504 5.09548 28.6419 5.45703 28.5768 5.83304C28.5117 6.24521 28.4756 6.66461 28.4756 7.084V9.60038H31.2017V12.876H28.5045V26.6944H24.7661V12.876H22.6113V9.60038H24.7661V7.05508C24.7661 6.20182 24.8601 5.34134 25.0553 4.50978C25.2216 3.76499 25.5326 3.04912 25.9664 2.42002C26.3786 1.82708 26.9354 1.34261 27.5862 1.02445C28.3454 0.662897 29.1842 0.489353 30.0302 0.511046C30.6449 0.511046 31.2595 0.597818 31.8452 0.778592L31.6138 3.88791L31.6066 3.87345Z" fill="#2B2423"/>
<path d="M37.9409 4.51701C37.9626 5.13887 37.7312 5.74627 37.3046 6.20182C36.4513 7.084 35.0485 7.1057 34.1664 6.25244C34.1519 6.23798 34.1374 6.22352 34.1157 6.20182C33.6963 5.73904 33.4722 5.13887 33.4939 4.51701C33.4794 3.89514 33.7036 3.29497 34.1157 2.83219C34.9184 1.95001 36.285 1.88493 37.1672 2.68757C37.2178 2.73096 37.2684 2.78157 37.3118 2.83219C37.724 3.29497 37.9482 3.89514 37.9337 4.51701" fill="#2B2423"/>
<path d="M37.6372 9.58592H33.8337V26.6872H37.6372V9.58592Z" fill="#2B2423"/>
<path d="M46.0035 12.8616V21.2639C46.0035 22.2112 46.1409 22.8909 46.4229 23.3175C46.7121 23.7514 47.2038 23.9973 47.7244 23.9611C47.9341 23.9611 48.1438 23.9394 48.3463 23.896C48.5415 23.8599 48.7295 23.7876 48.9031 23.6936L48.9682 26.6583C48.6211 26.8173 48.2595 26.933 47.8908 26.9981C47.4497 27.0849 46.9941 27.1283 46.5458 27.1355C45.0851 27.1355 44.0366 26.7016 43.3931 25.8412C42.7568 24.9734 42.4314 23.7369 42.4314 22.1172V12.876H40.2693V9.60038H42.4241V5.13164H46.0035V9.60038H49.0043V12.876H46.0035V12.8616Z" fill="#2B2423"/>
<path d="M73.2209 9.63654L69.1354 23.4839H69.063L64.3991 9.63654H61.9984L57.4067 23.4839H57.3344L53.2127 9.63654H50.5518L55.9461 26.6872H58.6432L63.1264 12.876H63.1987L67.7542 26.6872H70.4514L75.8385 9.63654H73.2209Z" fill="#2B2423"/>
<path d="M92.6794 17.6195V18.1619C92.6794 18.3716 92.6649 18.574 92.6433 18.7837H78.5067C78.5284 19.6081 78.6947 20.4252 79.0129 21.1916C79.3166 21.9292 79.7649 22.5944 80.3217 23.1585C80.8857 23.7225 81.5582 24.1708 82.2885 24.489C84.1686 25.2627 86.3089 25.1181 88.0661 24.084C88.9193 23.5634 89.6496 22.862 90.192 22.0232L92.0503 23.4766C91.0308 24.7637 89.9027 25.6893 88.6807 26.2461C87.4442 26.8101 86.0992 27.0993 84.7398 27.0849C83.5322 27.0993 82.3391 26.868 81.2255 26.4124C80.1771 25.9858 79.2298 25.3494 78.4344 24.5396C77.6462 23.7152 77.0171 22.7535 76.5977 21.6978C76.1422 20.5625 75.9108 19.355 75.918 18.1329C75.9035 16.9109 76.1277 15.6961 76.5688 14.5608C76.981 13.5051 77.6028 12.5362 78.3838 11.7191C79.1575 10.9164 80.0831 10.2801 81.1099 9.84624C82.18 9.39069 83.337 9.15929 84.5012 9.17375C85.716 9.15206 86.9163 9.37622 88.0371 9.84624C89.0061 10.2584 89.8738 10.8803 90.5824 11.6612C91.2694 12.4422 91.7972 13.3533 92.1299 14.3367C92.4842 15.3924 92.665 16.4987 92.6577 17.6123M90.1558 16.8097C90.0835 15.2044 89.5629 13.8739 88.6084 12.8182C87.6467 11.7624 86.28 11.2346 84.5084 11.2346C83.7202 11.2274 82.9393 11.3792 82.209 11.6901C80.8279 12.2831 79.7143 13.3605 79.0779 14.7127C78.767 15.3707 78.579 16.0793 78.5356 16.8097H90.1558Z" fill="#2B2423"/>
<path d="M97.5169 0.344734H95.0367V26.6872H97.5169V0.344734Z" fill="#2B2423"/>
<path d="M101.819 2.10909C101.892 2.10909 101.964 2.0874 102.029 2.06571C102.087 2.04401 102.138 2.00063 102.174 1.95001C102.21 1.88493 102.232 1.80539 102.224 1.72585C102.224 1.65354 102.21 1.58846 102.174 1.52338C102.145 1.47277 102.101 1.43661 102.044 1.40769C101.986 1.37876 101.928 1.3643 101.863 1.35707C101.798 1.34984 101.733 1.34261 101.668 1.34261H101.147V2.10909H101.819ZM101.711 1.03168C101.942 1.00998 102.166 1.07506 102.354 1.19799C102.499 1.33538 102.571 1.53061 102.55 1.72585C102.564 1.90662 102.499 2.08017 102.369 2.20309C102.239 2.30433 102.08 2.36941 101.913 2.38387L102.608 3.45405H102.246L101.581 2.41279H101.147V3.45405H100.807V1.03168H101.711ZM99.8308 2.23925C99.8308 2.47787 99.8742 2.71649 99.9682 2.94065C100.055 3.15035 100.185 3.34559 100.351 3.50467C100.518 3.66375 100.706 3.79391 100.915 3.88068C101.357 4.06146 101.856 4.06146 102.297 3.88068C102.506 3.79391 102.694 3.66375 102.861 3.49744C103.027 3.33113 103.15 3.14312 103.244 2.92619C103.338 2.70203 103.381 2.45618 103.381 2.21756C103.381 1.97893 103.338 1.74031 103.244 1.51615C103.157 1.30645 103.027 1.11122 102.861 0.952136C102.528 0.619511 102.08 0.438737 101.61 0.438737C101.371 0.438737 101.14 0.482123 100.915 0.576125C100.706 0.662897 100.518 0.793054 100.351 0.952136C100.185 1.11122 100.062 1.30645 99.9682 1.51615C99.8742 1.74031 99.8164 1.98617 99.8164 2.23202L99.8308 2.23925ZM99.491 2.23925C99.491 1.95724 99.5488 1.67523 99.6573 1.40769C100.12 0.351965 101.342 -0.146972 102.412 0.294117C102.665 0.395351 102.89 0.547201 103.085 0.735207C103.28 0.923212 103.432 1.14737 103.54 1.39323C103.656 1.65354 103.714 1.93555 103.707 2.21756C103.707 2.5068 103.649 2.7888 103.54 3.04912C103.078 4.10484 101.856 4.59655 100.785 4.15546C100.539 4.05422 100.308 3.90237 100.12 3.71437C99.9249 3.52636 99.773 3.3022 99.6645 3.05635C99.5488 2.79603 99.491 2.51403 99.4982 2.23202" fill="#2B2423"/>
</svg>
