<svg width="64" height="22" viewBox="0 0 64 22" fill="none" xmlns="http://www.w3.org/2000/svg">
<g id="ESG">
<path d="M16.2991 16.157V21H0.059082V0.699995H15.8931V5.51399H5.71408V8.414H15.3131V13.083H5.71408V16.157H16.2991Z" fill="#21312B"/>
<path d="M38.0745 2.70099L35.2325 6.32599C33.8405 5.28199 32.2455 4.934 30.4765 4.934C29.0845 4.934 27.7215 5.369 27.7215 6.442C27.7215 7.834 29.0845 8.03699 31.0855 8.24C35.1165 8.675 39.3215 10.299 39.3215 14.968C39.3215 19.579 34.9715 21.551 30.4185 21.58C26.7645 21.609 24.1545 20.971 21.3415 18.013L24.5025 14.388C26.5035 16.331 28.7365 16.679 30.4475 16.679C32.3325 16.679 33.6375 16.012 33.6375 14.881C33.6375 13.866 32.4775 13.228 30.2445 13.025C25.8075 12.619 21.9795 11.488 21.9795 6.442C21.9795 2.15 26.1845 0.293995 30.4765 0.293995C33.5215 0.293995 35.8995 0.989994 38.0745 2.70099Z" fill="#21312B"/>
<path d="M63.1889 3.39699L59.8539 6.703C58.3749 5.311 56.5769 4.934 55.2139 4.934C51.9079 4.934 49.7619 6.906 49.7619 10.879C49.7619 13.489 51.1249 16.708 55.2139 16.708C56.2869 16.708 57.9689 16.505 59.1289 15.664V13.054H53.9959V8.559H63.9139V17.578C62.6379 20.159 59.0999 21.551 55.1849 21.551C47.1519 21.551 44.1069 16.186 44.1069 10.879C44.1069 5.572 47.5869 0.119995 55.2139 0.119995C58.0269 0.119995 60.5209 0.699995 63.1889 3.39699Z" fill="#21312B"/>
</g>
</svg>
