<svg width="569" height="75" viewBox="0 0 569 75" fill="none" xmlns="http://www.w3.org/2000/svg">
<path d="M567.86 0H569V74.6066H567.86V0Z" fill="#BFA66B"/>
<path d="M557.956 0H559.096V74.6066H557.956V0Z" fill="#BFA66B"/>
<path d="M548.061 0H549.201V74.6066H548.061V0Z" fill="#BFA66B"/>
<path d="M538.167 0H539.306V74.6066H538.167V0Z" fill="#BFA66B"/>
<path d="M528.262 0H529.402V74.6066H528.262V0Z" fill="#BFA66B"/>
<path d="M518.367 0H519.507V74.6066H518.367V0Z" fill="#BFA66B"/>
<path d="M508.463 0H509.603V74.6066H508.463V0Z" fill="#BFA66B"/>
<path d="M498.568 0H499.708V74.6066H498.568V0Z" fill="#BFA66B"/>
<path d="M488.664 0H489.803V74.6066H488.664V0Z" fill="#BFA66B"/>
<path d="M478.769 0H479.909V74.6066H478.769V0Z" fill="#BFA66B"/>
<path d="M468.865 0H470.004V74.6066H468.865V0Z" fill="#BFA66B"/>
<path d="M458.97 0H460.109V74.6066H458.97V0Z" fill="#BFA66B"/>
<path d="M449.066 0H450.205V74.6066H449.066V0Z" fill="#BFA66B"/>
<path d="M439.171 0H440.31V74.6066H439.171V0Z" fill="#BFA66B"/>
<path d="M418.83 0H419.97V74.6066H418.83V0Z" fill="#BFA66B"/>
<path d="M398.49 0H399.629V74.6066H398.49V0Z" fill="#BFA66B"/>
<path d="M378.15 0H379.289V74.6066H378.15V0Z" fill="#BFA66B"/>
<path d="M357.819 0H358.958V74.6066H357.819V0Z" fill="#BFA66B"/>
<path d="M337.478 0H338.618V74.6066H337.478V0Z" fill="#BFA66B"/>
<path d="M317.138 0H318.277V74.6066H317.138V0Z" fill="#BFA66B"/>
<path d="M276.998 0H278.138V74.6066H276.998V0Z" fill="#BFA66B"/>
<path d="M236.859 0H237.998V74.6066H236.859V0Z" fill="#BFA66B"/>
<path d="M196.729 0H197.868V74.6066H196.729V0Z" fill="#BFA66B"/>
<path d="M156.589 0H157.728V74.6066H156.589V0Z" fill="#BFA66B"/>
<path d="M78.2945 0H79.434V74.6066H78.2945V0Z" fill="#BFA66B"/>
<path d="M0 0H1.13953V74.6066H0V0Z" fill="#BFA66B"/>
</svg>
