<svg width="141" height="128" viewBox="0 0 141 128" fill="none" xmlns="http://www.w3.org/2000/svg">
<mask id="path-1-inside-1_952_139" fill="white">
<path d="M83.1061 124.509L98.1371 108.997H83.7476C81.3036 108.997 78.9588 108.005 77.2632 106.25L64.8977 93.4848C63.1945 91.7299 60.8574 90.738 58.4133 90.738H48.0871C45.643 90.738 43.2982 91.7299 41.595 93.4848L36.9818 98.2537C36.0653 99.2075 34.4232 98.8031 34.1101 97.5212C32.3305 90.2802 31.4292 81.8641 31.4292 72.3493C31.4292 52.9 35.2634 38.1814 42.8323 28.5902C50.2562 19.0373 56.2442 14.4973 70.2289 14.4973C84.2135 14.4973 92.4241 18.6939 100.413 28.9641C106.928 37.4336 109.586 50.0539 109.586 72.54C109.586 89.0212 108.204 99.94 105.11 107.929L104.774 108.799H105.706C114.558 108.799 123.387 108.814 132.194 108.837H132.583L132.767 108.493C138.235 98.1087 141 85.9539 141 72.3493C141 50.0158 133.668 32.2069 119.217 19.4188C103.774 5.44031 90.0411 0 70.2136 0C47.5601 0 34.4003 7.83618 21.6071 19.6019C7.26347 32.6266 0 50.1836 0 71.777C0 85.7402 2.94816 98.2232 8.76811 108.883L8.95141 109.218H9.3333C18.5597 109.134 27.8166 109.066 37.1117 109.005H38.1046H40.9535C43.3975 109.005 45.7423 109.997 47.4379 111.751L59.8034 124.517C61.5066 126.272 63.8437 127.264 66.2878 127.264H76.614C79.0581 127.264 81.4028 126.272 83.0984 124.517"/>
</mask>
<path d="M98.1371 108.997L98.8553 109.693L100.499 107.997H98.1371V108.997ZM77.2632 106.25L77.9824 105.555L77.9815 105.554L77.2632 106.25ZM64.8977 93.4848L65.616 92.7891L65.6153 92.7884L64.8977 93.4848ZM41.595 93.4848L40.8774 92.7884L40.8763 92.7896L41.595 93.4848ZM36.9818 98.2537L36.2631 97.5584L36.2608 97.5608L36.9818 98.2537ZM34.1101 97.5212L35.0815 97.2839L35.0812 97.2825L34.1101 97.5212ZM42.8323 28.5902L43.6174 29.2098L43.622 29.2039L42.8323 28.5902ZM100.413 28.9641L101.206 28.3544L101.202 28.3501L100.413 28.9641ZM105.11 107.929L104.178 107.568L104.178 107.568L105.11 107.929ZM104.774 108.799L103.841 108.438L103.316 109.799H104.774V108.799ZM132.194 108.837L132.191 109.837H132.194V108.837ZM132.583 108.837V109.837H133.183L133.465 109.308L132.583 108.837ZM132.767 108.493L133.649 108.964L133.651 108.959L132.767 108.493ZM119.217 19.4188L118.546 20.1602L118.554 20.1677L119.217 19.4188ZM21.6071 19.6019L22.2794 20.3422L22.284 20.338L21.6071 19.6019ZM8.76811 108.883L9.6458 108.403L8.76811 108.883ZM8.95141 109.218L8.07371 109.697L8.35806 110.218H8.95141V109.218ZM9.3333 109.218V110.218L9.34239 110.218L9.3333 109.218ZM37.1117 109.005V108.005L37.1051 108.005L37.1117 109.005ZM47.4379 111.751L46.7187 112.446L46.7196 112.447L47.4379 111.751ZM59.8034 124.517L59.0851 125.213L59.0858 125.213L59.8034 124.517ZM83.8242 125.205L98.8553 109.693L97.4189 108.301L82.3879 123.813L83.8242 125.205ZM98.1371 107.997H83.7476V109.997H98.1371V107.997ZM83.7476 107.997C81.5737 107.997 79.4888 107.114 77.9824 105.555L76.544 106.945C78.4288 108.896 81.0334 109.997 83.7476 109.997V107.997ZM77.9815 105.554L65.616 92.7891L64.1795 94.1806L76.5449 106.946L77.9815 105.554ZM65.6153 92.7884C63.7245 90.8401 61.1288 89.738 58.4133 89.738V91.738C60.586 91.738 62.6645 92.6197 64.1801 94.1813L65.6153 92.7884ZM58.4133 89.738H48.0871V91.738H58.4133V89.738ZM48.0871 89.738C45.3725 89.738 42.7689 90.8395 40.8774 92.7884L42.3126 94.1813C43.8276 92.6203 45.9135 91.738 48.0871 91.738V89.738ZM40.8763 92.7896L36.2631 97.5584L37.7006 98.949L42.3138 94.1801L40.8763 92.7896ZM36.2608 97.5608C35.8595 97.9784 35.1969 97.7563 35.0815 97.2839L33.1386 97.7585C33.6495 99.8499 36.2712 100.437 37.7029 98.9466L36.2608 97.5608ZM35.0812 97.2825C33.3251 90.1371 32.4292 81.8039 32.4292 72.3493H30.4292C30.4292 81.9243 31.3359 90.4232 33.139 97.7599L35.0812 97.2825ZM32.4292 72.3493C32.4292 53.0004 36.2489 38.5468 43.6173 29.2097L42.0473 27.9708C34.2779 37.8159 30.4292 52.7995 30.4292 72.3493H32.4292ZM43.622 29.2039C47.3096 24.4587 50.5629 21.0642 54.5577 18.8346C58.5369 16.6137 63.3471 15.4973 70.2289 15.4973V13.4973C63.1259 13.4973 57.9498 14.6509 53.5829 17.0882C49.2316 19.5168 45.779 23.1689 42.0427 27.9766L43.622 29.2039ZM70.2289 15.4973C77.1212 15.4973 82.5088 16.5314 87.1322 18.7788C91.754 21.0254 95.6916 24.5231 99.6238 29.5781L101.202 28.3501C97.1456 23.1349 92.9835 19.3993 88.0065 16.98C83.0312 14.5615 77.3211 13.4973 70.2289 13.4973V15.4973ZM99.6205 29.5738C105.916 37.7582 108.586 50.0754 108.586 72.54H110.586C110.586 50.0324 107.94 37.109 101.206 28.3544L99.6205 29.5738ZM108.586 72.54C108.586 88.9901 107.202 99.7567 104.178 107.568L106.043 108.29C109.205 100.123 110.586 89.0523 110.586 72.54H108.586ZM104.178 107.568L103.841 108.438L105.707 109.159L106.043 108.289L104.178 107.568ZM104.774 109.799H105.706V107.799H104.774V109.799ZM105.706 109.799C114.557 109.799 123.385 109.814 132.191 109.837L132.196 107.837C123.389 107.814 114.559 107.799 105.706 107.799V109.799ZM132.194 109.837H132.583V107.837H132.194V109.837ZM133.465 109.308L133.649 108.964L131.884 108.022L131.701 108.366L133.465 109.308ZM133.651 108.959C139.207 98.4094 142 86.0899 142 72.3493H140C140 85.8178 137.263 97.808 131.882 108.027L133.651 108.959ZM142 72.3493C142 49.7789 134.58 31.6784 119.88 18.6699L118.554 20.1677C132.756 32.7355 140 50.2526 140 72.3493H142ZM119.888 18.6774C112.104 11.6318 104.71 6.70081 96.7278 3.53779C88.7429 0.373808 80.2227 -1 70.2136 -1V1C80.032 1 88.2918 2.34635 95.991 5.39714C103.693 8.4489 110.887 13.2273 118.546 20.1602L119.888 18.6774ZM70.2136 -1C58.7649 -1 49.6708 0.981543 41.8068 4.47492C33.9494 7.96536 27.37 12.9432 20.9302 18.8659L22.284 20.338C28.6374 14.4949 35.0345 9.67178 42.6187 6.30269C50.1963 2.93655 59.0088 1 70.2136 1V-1ZM20.9349 18.8616C6.35704 32.0989 -1 49.938 -1 71.777H1C1 50.4293 8.1699 33.1543 22.2794 20.3422L20.9349 18.8616ZM-1 71.777C-1 85.8822 1.97885 98.5346 7.89041 109.362L9.6458 108.403C3.91748 97.9118 1 85.5982 1 71.777H-1ZM7.89041 109.362L8.07371 109.697L9.82911 108.739L9.6458 108.403L7.89041 109.362ZM8.95141 110.218H9.3333V108.218H8.95141V110.218ZM9.34239 110.218C18.5677 110.134 27.8237 110.066 37.1183 110.005L37.1051 108.005C27.8095 108.066 18.5517 108.134 9.3242 108.218L9.34239 110.218ZM37.1117 110.005H38.1046V108.005H37.1117V110.005ZM38.1046 110.005H40.9535V108.005H38.1046V110.005ZM40.9535 110.005C43.1274 110.005 45.2123 110.887 46.7187 112.446L48.1571 111.057C46.2723 109.106 43.6677 108.005 40.9535 108.005V110.005ZM46.7196 112.447L59.0851 125.213L60.5216 123.821L48.1562 111.056L46.7196 112.447ZM59.0858 125.213C60.9766 127.161 63.5723 128.264 66.2878 128.264V126.264C64.1151 126.264 62.0366 125.382 60.521 123.82L59.0858 125.213ZM66.2878 128.264H76.614V126.264H66.2878V128.264ZM76.614 128.264C79.3282 128.264 81.9328 127.162 83.8176 125.212L82.3793 123.822C80.8729 125.381 78.788 126.264 76.614 126.264V128.264Z" fill="#CBB687" mask="url(#path-1-inside-1_952_139)"/>
</svg>
